%FSTAX23Y23*%
%MOIN*%
%SFA1B1*%

%IPPOS*%
%ADD10R,0.027559X0.035433*%
%ADD11R,0.055118X0.129921*%
%ADD12R,0.035433X0.027559*%
%ADD13C,0.040157*%
%ADD14C,0.059055*%
%ADD15R,0.059055X0.059055*%
%ADD16R,0.059055X0.059055*%
%ADD17C,0.059842*%
%ADD18R,0.059842X0.059842*%
%ADD19C,0.070079*%
%ADD20C,0.025197*%
%LNpcb2-1*%
%LPD*%
G54D10*
X0434Y03644D03*
X04399D03*
X03335Y03614D03*
X03394D03*
G54D11*
X0391Y03209D03*
X04059D03*
X02734Y03174D03*
X02585D03*
G54D12*
X03685Y03615D03*
Y03674D03*
X02335Y03565D03*
Y03624D03*
X03735Y0169D03*
Y01749D03*
G54D13*
X0584Y02209D02*
X05559D01*
X05844Y02205D02*
X0584Y02209D01*
Y02309D02*
X05559D01*
X05844Y02305D02*
X0584Y02309D01*
Y02409D02*
X05559D01*
X05844Y02405D02*
X0584Y02409D01*
Y02509D02*
X05559D01*
X05844Y02505D02*
X0584Y02509D01*
Y02609D02*
X05559D01*
X05844Y02605D02*
X0584Y02609D01*
Y02709D02*
X05559D01*
X05844Y02705D02*
X0584Y02709D01*
Y02809D02*
X05559D01*
X05844Y02805D02*
X0584Y02809D01*
Y02909D02*
X05559D01*
X05844Y02905D02*
X0584Y02909D01*
X05009Y03214D02*
Y03314D01*
Y03414*
Y03514*
Y03614*
Y03714*
Y03814*
Y03914*
Y04014*
Y04114*
X03955Y0412D02*
X03855D01*
X03755*
X03655*
X03555*
X03455*
X03355*
X03255*
X03155*
X03055*
X04274Y02085D02*
Y02429D01*
X04409Y0195D02*
X04274Y02085D01*
X05Y0195D02*
X04409D01*
X05259Y02209D02*
X05Y0195D01*
X04374Y02124D02*
Y02429D01*
X04455Y02044D02*
X04374Y02124D01*
X04925Y02044D02*
X04455D01*
X0519Y02309D02*
X04925Y02044D01*
X04475Y02194D02*
Y02429D01*
X0455Y0212D02*
X04475Y02194D01*
X04855Y0212D02*
X0455D01*
X05144Y02409D02*
X04855Y0212D01*
X04575Y02294D02*
Y02429D01*
X04664Y02205D02*
X04575Y02294D01*
X0482Y02205D02*
X04664D01*
X05125Y02509D02*
X0482Y02205D01*
X05144Y02609D02*
X05025Y02729D01*
Y02809*
X04925Y02909*
X0459*
X04475Y02794*
Y02729D02*
Y02794D01*
X05209Y02709D02*
X0495Y0297D01*
X0455*
X04374Y02794*
Y02729D02*
Y02794D01*
X04274Y02729D02*
Y02805D01*
X04509Y0304D02*
X04274Y02805D01*
X04979Y0304D02*
X04509D01*
X05209Y02809D02*
X04979Y0304D01*
X05214Y02909D02*
X05029Y03094D01*
X0442*
X04174Y0285*
Y02729D02*
Y0285D01*
X04059Y03209D02*
Y03519D01*
X0407Y03529D02*
X04059Y03519D01*
Y03074D02*
Y03209D01*
Y03074D02*
X03974Y0299D01*
Y02729D02*
Y0299D01*
X0391Y03209D02*
Y0333D01*
X0397Y0339D02*
X0391Y0333D01*
X0397Y0339D02*
Y03529D01*
X02605Y02724D02*
Y02944D01*
X0274Y03079D02*
X02605Y02944D01*
X0274Y03079D02*
Y03464D01*
X0264Y03344D02*
Y03464D01*
Y03344D02*
X02585Y0329D01*
Y03174D02*
Y0329D01*
X03884Y03615D02*
X03685D01*
X0397Y03529D02*
X03884Y03615D01*
X03914Y03674D02*
X03685D01*
X0407Y03829D02*
X03914Y03674D01*
X0434Y03644D02*
X03944D01*
X03914Y03674*
X04564Y0364D02*
X04404D01*
X04399Y03644*
X04564Y0354D02*
Y0364D01*
X0417Y03905D02*
X03955Y0412D01*
X0417Y03829D02*
Y03905D01*
X03055Y0412D02*
X0284Y03905D01*
Y03764D02*
Y03905D01*
X03684Y03614D02*
X03394D01*
X03685Y03615D02*
X03684Y03614D01*
X03335D02*
X0289D01*
X0274Y03764*
X02599Y03624D02*
X02335D01*
X0274Y03764D02*
X02599Y03624D01*
X02539Y03565D02*
X02335D01*
X0264Y03464D02*
X02539Y03565D01*
X02334Y03564D02*
X02075D01*
X02335Y03565D02*
X02334Y03564D01*
X02075Y03464D02*
Y03564D01*
X0397Y03829D02*
X0387D01*
X0365Y02579D02*
X03505Y02724D01*
X04874Y02729D02*
X04724Y02579D01*
X04775Y02729D02*
X04624Y02579D01*
X04724D02*
X04624D01*
X0365*
X03505Y02724D02*
X03405D01*
X05355Y03214D02*
X05009D01*
X05559Y03009D02*
X05355Y03214D01*
X0264Y03764D02*
X0254D01*
X02064*
X01959Y03659*
Y0235D02*
Y03659D01*
X02124Y02185D02*
X01959Y0235D01*
X02564Y02185D02*
X02124D01*
X02805Y02425D02*
X02564Y02185D01*
X05329Y02309D02*
X0519D01*
X05329Y02409D02*
X05144D01*
X05329Y02509D02*
X05125D01*
X05329Y02709D02*
X05209D01*
X05329Y02809D02*
X05209D01*
X05329Y02909D02*
X05214D01*
X05559Y02309D02*
X05329D01*
X05559Y02709D02*
X05329D01*
X05559Y02909D02*
X05329D01*
X05559Y02509D02*
X05329D01*
X05559Y02209D02*
X05329D01*
X05259*
X05559Y02609D02*
X05329D01*
X05144*
X05559Y02809D02*
X05329D01*
X05559Y02409D02*
X05329D01*
Y02109D02*
X04905Y01685D01*
X0422*
Y01864*
X03974Y0187D02*
Y02429D01*
Y0187D02*
X0397Y01864D01*
Y01685D02*
Y01864D01*
X0365Y02579D02*
X02525D01*
X02274Y02829*
Y032*
X0254Y03464D02*
X02274Y032D01*
X03735Y0169D02*
Y0169D01*
X0382Y01605D02*
X03735Y0169D01*
X0414Y01605D02*
X0382D01*
X0422Y01685D02*
X0414Y01605D01*
X03735Y01749D02*
Y02494D01*
X0365Y02579*
X03735Y0169D02*
X03594D01*
X03405Y01879*
Y02425*
G54D14*
X05329Y02209D03*
Y02909D03*
Y02809D03*
Y02709D03*
Y02609D03*
Y02509D03*
Y02409D03*
Y02309D03*
X06144Y02805D03*
Y02705D03*
Y02605D03*
Y02505D03*
Y02405D03*
Y02305D03*
Y02205D03*
X05844Y02905D03*
Y02805D03*
Y02705D03*
Y02605D03*
Y02505D03*
Y02405D03*
Y02305D03*
Y02205D03*
X05435Y01755D03*
X05635D03*
X05735D03*
X05835D03*
X05935D03*
X06035D03*
X06135D03*
X06235D03*
X05535D03*
X05009Y03314D03*
Y03514D03*
Y03614D03*
Y03714D03*
Y03814D03*
Y03914D03*
Y04014D03*
Y04114D03*
Y03414D03*
X03855Y0412D03*
X03655D03*
X03555D03*
X03455D03*
X03355D03*
X03255D03*
X03155D03*
X03055D03*
X03755D03*
X05559Y02309D03*
Y03009D03*
Y02909D03*
Y02809D03*
Y02709D03*
Y02609D03*
Y02509D03*
Y02409D03*
X04564Y0364D03*
X02075Y03464D03*
G54D15*
X05329Y02109D03*
X05009Y03214D03*
X05559Y02209D03*
X04564Y0354D03*
X02075Y03564D03*
G54D16*
X06144Y02905D03*
X05335Y01755D03*
X03955Y0412D03*
G54D17*
X04874Y02729D03*
X04775D03*
X04675D03*
X04575D03*
X04475D03*
X04374D03*
X04274D03*
X04174D03*
X04074D03*
X03974D03*
Y02429D03*
X04074D03*
X04174D03*
X04274D03*
X04374D03*
X04475D03*
X04575D03*
X04675D03*
X04775D03*
X03505Y02724D03*
X03405D03*
X03305D03*
X03205D03*
X03105D03*
X03005D03*
X02905D03*
X02805D03*
X02705D03*
X02605D03*
Y02425D03*
X02705D03*
X02805D03*
X02905D03*
X03005D03*
X03105D03*
X03205D03*
X03305D03*
X03405D03*
X0254Y03464D03*
X0264D03*
X0274D03*
X0284D03*
Y03764D03*
X0274D03*
X0264D03*
X0387Y03529D03*
X0397D03*
X0407D03*
X0417D03*
Y03829D03*
X0407D03*
X0397D03*
G54D18*
X04874Y02429D03*
X03505Y02425D03*
X0254Y03764D03*
X0387Y03829D03*
G54D19*
X0397Y01685D03*
Y01864D03*
X0422Y01685D03*
Y01864D03*
G54D20*
X06479Y044D03*
X01609Y0444D03*
X01579Y01409D03*
X0652Y01424D03*
M02*