G04 Layer_Color=2752767*
%FSLAX25Y25*%
%MOIN*%
G70*
G01*
G75*
%ADD11C,0.00200*%
%ADD12C,0.00267*%
D11*
X135200Y571700D02*
Y573300D01*
X136800D01*
Y571700D01*
X135200D01*
X155200D02*
Y573300D01*
X156800D01*
Y571700D01*
X155200D01*
X175200D02*
Y573300D01*
X176800D01*
Y571700D01*
X175200D01*
X135200Y805200D02*
Y806800D01*
X136800D01*
Y805200D01*
X135200D01*
X155200D02*
Y806800D01*
X156800D01*
Y805200D01*
X155200D01*
X175200D02*
Y806800D01*
X176800D01*
Y805200D01*
X175200D01*
X990728Y785633D02*
X989928Y787233D01*
X991528D01*
X990728Y785633D01*
X1006319D02*
X1005519Y787233D01*
X1007119D01*
X1006319Y785633D01*
X1037500D02*
X1036700Y787233D01*
X1038300D01*
X1037500Y785633D01*
X1021909D02*
X1021109Y787233D01*
X1022709D01*
X1021909Y785633D01*
X990728Y916700D02*
X989928Y918300D01*
X991528D01*
X990728Y916700D01*
X1006319D02*
X1005519Y918300D01*
X1007119D01*
X1006319Y916700D01*
X1037500D02*
X1036700Y918300D01*
X1038300D01*
X1037500Y916700D01*
X1021909D02*
X1021109Y918300D01*
X1022709D01*
X1021909Y916700D01*
X934000Y908700D02*
X934400Y909100D01*
X934800D01*
X934400Y909500D01*
X934800Y909900D01*
X934400D01*
X934000Y910300D01*
X933600Y909900D01*
X933200D01*
X933600Y909500D01*
X933200Y909100D01*
X933600D01*
X934000Y908700D01*
Y896700D02*
X934400Y897100D01*
X934800D01*
X934400Y897500D01*
X934800Y897900D01*
X934400D01*
X934000Y898300D01*
X933600Y897900D01*
X933200D01*
X933600Y897500D01*
X933200Y897100D01*
X933600D01*
X934000Y896700D01*
X820500Y911700D02*
X820900Y912100D01*
X821300D01*
X820900Y912500D01*
X821300Y912900D01*
X820900D01*
X820500Y913300D01*
X820100Y912900D01*
X819700D01*
X820100Y912500D01*
X819700Y912100D01*
X820100D01*
X820500Y911700D01*
Y891700D02*
X820900Y892100D01*
X821300D01*
X820900Y892500D01*
X821300Y892900D01*
X820900D01*
X820500Y893300D01*
X820100Y892900D01*
X819700D01*
X820100Y892500D01*
X819700Y892100D01*
X820100D01*
X820500Y891700D01*
X958700Y913700D02*
X959100Y914500D01*
X958700Y915300D01*
X959500Y914900D01*
X960300Y915300D01*
X959900Y914500D01*
X960300Y913700D01*
X959500Y914100D01*
X958700Y913700D01*
Y893700D02*
X959100Y894500D01*
X958700Y895300D01*
X959500Y894900D01*
X960300Y895300D01*
X959900Y894500D01*
X960300Y893700D01*
X959500Y894100D01*
X958700Y893700D01*
X852700Y906200D02*
X853100Y907000D01*
X852700Y907800D01*
X853500Y907400D01*
X854300Y907800D01*
X853900Y907000D01*
X854300Y906200D01*
X853500Y906600D01*
X852700Y906200D01*
Y886200D02*
X853100Y887000D01*
X852700Y887800D01*
X853500Y887400D01*
X854300Y887800D01*
X853900Y887000D01*
X854300Y886200D01*
X853500Y886600D01*
X852700Y886200D01*
X783100Y874600D02*
Y874200D01*
X783900D01*
Y874600D01*
X784300D01*
Y875400D01*
X783900D01*
Y875800D01*
X783100D01*
Y875400D01*
X782700D01*
Y874600D01*
X783100D01*
Y883600D02*
Y883200D01*
X783900D01*
Y883600D01*
X784300D01*
Y884400D01*
X783900D01*
Y884800D01*
X783100D01*
Y884400D01*
X782700D01*
Y883600D01*
X783100D01*
X774600Y1039100D02*
Y1038700D01*
X775400D01*
Y1039100D01*
X775800D01*
Y1039900D01*
X775400D01*
Y1040300D01*
X774600D01*
Y1039900D01*
X774200D01*
Y1039100D01*
X774600D01*
Y1048100D02*
Y1047700D01*
X775400D01*
Y1048100D01*
X775800D01*
Y1048900D01*
X775400D01*
Y1049300D01*
X774600D01*
Y1048900D01*
X774200D01*
Y1048100D01*
X774600D01*
X123830Y905700D02*
X124230D01*
X124630Y906100D01*
X125030Y905700D01*
X125430D01*
Y906100D01*
X125030Y906500D01*
X125430Y906900D01*
Y907300D01*
X125030D01*
X124630Y906900D01*
X124230Y907300D01*
X123830D01*
Y906900D01*
X124230Y906500D01*
X123830Y906100D01*
Y905700D01*
X143515D02*
X143915D01*
X144315Y906100D01*
X144715Y905700D01*
X145115D01*
Y906100D01*
X144715Y906500D01*
X145115Y906900D01*
Y907300D01*
X144715D01*
X144315Y906900D01*
X143915Y907300D01*
X143515D01*
Y906900D01*
X143915Y906500D01*
X143515Y906100D01*
Y905700D01*
X163200D02*
X163600D01*
X164000Y906100D01*
X164400Y905700D01*
X164800D01*
Y906100D01*
X164400Y906500D01*
X164800Y906900D01*
Y907300D01*
X164400D01*
X164000Y906900D01*
X163600Y907300D01*
X163200D01*
Y906900D01*
X163600Y906500D01*
X163200Y906100D01*
Y905700D01*
X182885D02*
X183285D01*
X183685Y906100D01*
X184085Y905700D01*
X184485D01*
Y906100D01*
X184085Y906500D01*
X184485Y906900D01*
Y907300D01*
X184085D01*
X183685Y906900D01*
X183285Y907300D01*
X182885D01*
Y906900D01*
X183285Y906500D01*
X182885Y906100D01*
Y905700D01*
X934000Y1091200D02*
X934400Y1091600D01*
X934800D01*
X934400Y1092000D01*
X934800Y1092400D01*
X934400D01*
X934000Y1092800D01*
X933600Y1092400D01*
X933200D01*
X933600Y1092000D01*
X933200Y1091600D01*
X933600D01*
X934000Y1091200D01*
Y1079200D02*
X934400Y1079600D01*
X934800D01*
X934400Y1080000D01*
X934800Y1080400D01*
X934400D01*
X934000Y1080800D01*
X933600Y1080400D01*
X933200D01*
X933600Y1080000D01*
X933200Y1079600D01*
X933600D01*
X934000Y1079200D01*
X820500D02*
X820900Y1079600D01*
X821300D01*
X820900Y1080000D01*
X821300Y1080400D01*
X820900D01*
X820500Y1080800D01*
X820100Y1080400D01*
X819700D01*
X820100Y1080000D01*
X819700Y1079600D01*
X820100D01*
X820500Y1079200D01*
Y1059200D02*
X820900Y1059600D01*
X821300D01*
X820900Y1060000D01*
X821300Y1060400D01*
X820900D01*
X820500Y1060800D01*
X820100Y1060400D01*
X819700D01*
X820100Y1060000D01*
X819700Y1059600D01*
X820100D01*
X820500Y1059200D01*
X1026700Y981200D02*
Y982800D01*
X1028300D01*
Y981200D01*
X1026700D01*
X1006700D02*
Y982800D01*
X1008300D01*
Y981200D01*
X1006700D01*
X986700D02*
Y982800D01*
X988300D01*
Y981200D01*
X986700D01*
X958700Y1094700D02*
X959100Y1095500D01*
X958700Y1096300D01*
X959500Y1095900D01*
X960300Y1096300D01*
X959900Y1095500D01*
X960300Y1094700D01*
X959500Y1095100D01*
X958700Y1094700D01*
Y1074700D02*
X959100Y1075500D01*
X958700Y1076300D01*
X959500Y1075900D01*
X960300Y1076300D01*
X959900Y1075500D01*
X960300Y1074700D01*
X959500Y1075100D01*
X958700Y1074700D01*
X852700Y1078700D02*
X853100Y1079500D01*
X852700Y1080300D01*
X853500Y1079900D01*
X854300Y1080300D01*
X853900Y1079500D01*
X854300Y1078700D01*
X853500Y1079100D01*
X852700Y1078700D01*
Y1058700D02*
X853100Y1059500D01*
X852700Y1060300D01*
X853500Y1059900D01*
X854300Y1060300D01*
X853900Y1059500D01*
X854300Y1058700D01*
X853500Y1059100D01*
X852700Y1058700D01*
X428000Y883700D02*
X428400Y884100D01*
X428800D01*
X428400Y884500D01*
X428800Y884900D01*
X428400D01*
X428000Y885300D01*
X427600Y884900D01*
X427200D01*
X427600Y884500D01*
X427200Y884100D01*
X427600D01*
X428000Y883700D01*
Y871700D02*
X428400Y872100D01*
X428800D01*
X428400Y872500D01*
X428800Y872900D01*
X428400D01*
X428000Y873300D01*
X427600Y872900D01*
X427200D01*
X427600Y872500D01*
X427200Y872100D01*
X427600D01*
X428000Y871700D01*
X278200Y832000D02*
X279000Y832800D01*
X279800Y832000D01*
X279000Y831200D01*
X278200Y832000D01*
Y802000D02*
X279000Y802800D01*
X279800Y802000D01*
X279000Y801200D01*
X278200Y802000D01*
X232700Y919000D02*
X233500Y919800D01*
X234300Y919000D01*
X233500Y918200D01*
X232700Y919000D01*
Y889000D02*
X233500Y889800D01*
X234300Y889000D01*
X233500Y888200D01*
X232700Y889000D01*
X119893Y857700D02*
Y859300D01*
X121493D01*
Y857700D01*
X119893D01*
X178948D02*
Y859300D01*
X180548D01*
Y857700D01*
X178948D01*
X398700Y886700D02*
X399100Y887500D01*
X398700Y888300D01*
X399500Y887900D01*
X400300Y888300D01*
X399900Y887500D01*
X400300Y886700D01*
X399500Y887100D01*
X398700Y886700D01*
Y866700D02*
X399100Y867500D01*
X398700Y868300D01*
X399500Y867900D01*
X400300Y868300D01*
X399900Y867500D01*
X400300Y866700D01*
X399500Y867100D01*
X398700Y866700D01*
X367133Y867700D02*
Y869300D01*
X368733D01*
Y867700D01*
X367133D01*
X367533Y868100D02*
Y868900D01*
X368333D01*
Y868100D01*
X367533D01*
X349416Y867700D02*
Y869300D01*
X351016D01*
Y867700D01*
X349416D01*
X349816Y868100D02*
Y868900D01*
X350617D01*
Y868100D01*
X349816D01*
X331700Y867700D02*
Y869300D01*
X333300D01*
Y867700D01*
X331700D01*
X332100Y868100D02*
Y868900D01*
X332900D01*
Y868100D01*
X332100D01*
X331700Y885417D02*
Y887016D01*
X333300D01*
Y885417D01*
X331700D01*
X332100Y885816D02*
Y886617D01*
X332900D01*
Y885816D01*
X332100D01*
X349416Y885417D02*
Y887016D01*
X351016D01*
Y885417D01*
X349416D01*
X349816Y885816D02*
Y886617D01*
X350617D01*
Y885816D01*
X349816D01*
X367133Y885417D02*
Y887016D01*
X368733D01*
Y885417D01*
X367133D01*
X367533Y885816D02*
Y886617D01*
X368333D01*
Y885816D01*
X367533D01*
X990728Y830200D02*
X989928Y831800D01*
X991528D01*
X990728Y830200D01*
X1006319D02*
X1005519Y831800D01*
X1007119D01*
X1006319Y830200D01*
X1037500D02*
X1036700Y831800D01*
X1038300D01*
X1037500Y830200D01*
X1021909D02*
X1021109Y831800D01*
X1022709D01*
X1021909Y830200D01*
X934000Y800700D02*
X934400Y801100D01*
X934800D01*
X934400Y801500D01*
X934800Y801900D01*
X934400D01*
X934000Y802300D01*
X933600Y801900D01*
X933200D01*
X933600Y801500D01*
X933200Y801100D01*
X933600D01*
X934000Y800700D01*
Y788700D02*
X934400Y789100D01*
X934800D01*
X934400Y789500D01*
X934800Y789900D01*
X934400D01*
X934000Y790300D01*
X933600Y789900D01*
X933200D01*
X933600Y789500D01*
X933200Y789100D01*
X933600D01*
X934000Y788700D01*
X961700Y804700D02*
X962100Y805500D01*
X961700Y806300D01*
X962500Y805900D01*
X963300Y806300D01*
X962900Y805500D01*
X963300Y804700D01*
X962500Y805100D01*
X961700Y804700D01*
Y784700D02*
X962100Y785500D01*
X961700Y786300D01*
X962500Y785900D01*
X963300Y786300D01*
X962900Y785500D01*
X963300Y784700D01*
X962500Y785100D01*
X961700Y784700D01*
X934000Y1001700D02*
X934400Y1002100D01*
X934800D01*
X934400Y1002500D01*
X934800Y1002900D01*
X934400D01*
X934000Y1003300D01*
X933600Y1002900D01*
X933200D01*
X933600Y1002500D01*
X933200Y1002100D01*
X933600D01*
X934000Y1001700D01*
Y989700D02*
X934400Y990100D01*
X934800D01*
X934400Y990500D01*
X934800Y990900D01*
X934400D01*
X934000Y991300D01*
X933600Y990900D01*
X933200D01*
X933600Y990500D01*
X933200Y990100D01*
X933600D01*
X934000Y989700D01*
X820500Y984200D02*
X820900Y984600D01*
X821300D01*
X820900Y985000D01*
X821300Y985400D01*
X820900D01*
X820500Y985800D01*
X820100Y985400D01*
X819700D01*
X820100Y985000D01*
X819700Y984600D01*
X820100D01*
X820500Y984200D01*
Y964200D02*
X820900Y964600D01*
X821300D01*
X820900Y965000D01*
X821300Y965400D01*
X820900D01*
X820500Y965800D01*
X820100Y965400D01*
X819700D01*
X820100Y965000D01*
X819700Y964600D01*
X820100D01*
X820500Y964200D01*
X779600Y990600D02*
Y990200D01*
X780400D01*
Y990600D01*
X780800D01*
Y991400D01*
X780400D01*
Y991800D01*
X779600D01*
Y991400D01*
X779200D01*
Y990600D01*
X779600D01*
Y999600D02*
Y999200D01*
X780400D01*
Y999600D01*
X780800D01*
Y1000400D01*
X780400D01*
Y1000800D01*
X779600D01*
Y1000400D01*
X779200D01*
Y999600D01*
X779600D01*
X1026700Y1085700D02*
Y1087300D01*
X1028300D01*
Y1085700D01*
X1026700D01*
X1006700D02*
Y1087300D01*
X1008300D01*
Y1085700D01*
X1006700D01*
X986700D02*
Y1087300D01*
X988300D01*
Y1085700D01*
X986700D01*
X820500Y815200D02*
X820900Y815600D01*
X821300D01*
X820900Y816000D01*
X821300Y816400D01*
X820900D01*
X820500Y816800D01*
X820100Y816400D01*
X819700D01*
X820100Y816000D01*
X819700Y815600D01*
X820100D01*
X820500Y815200D01*
Y795200D02*
X820900Y795600D01*
X821300D01*
X820900Y796000D01*
X821300Y796400D01*
X820900D01*
X820500Y796800D01*
X820100Y796400D01*
X819700D01*
X820100Y796000D01*
X819700Y795600D01*
X820100D01*
X820500Y795200D01*
X781600Y800100D02*
Y799700D01*
X782400D01*
Y800100D01*
X782800D01*
Y800900D01*
X782400D01*
Y801300D01*
X781600D01*
Y800900D01*
X781200D01*
Y800100D01*
X781600D01*
Y809100D02*
Y808700D01*
X782400D01*
Y809100D01*
X782800D01*
Y809900D01*
X782400D01*
Y810300D01*
X781600D01*
Y809900D01*
X781200D01*
Y809100D01*
X781600D01*
X958700Y1003700D02*
X959100Y1004500D01*
X958700Y1005300D01*
X959500Y1004900D01*
X960300Y1005300D01*
X959900Y1004500D01*
X960300Y1003700D01*
X959500Y1004100D01*
X958700Y1003700D01*
Y983700D02*
X959100Y984500D01*
X958700Y985300D01*
X959500Y984900D01*
X960300Y985300D01*
X959900Y984500D01*
X960300Y983700D01*
X959500Y984100D01*
X958700Y983700D01*
X852700Y980200D02*
X853100Y981000D01*
X852700Y981800D01*
X853500Y981400D01*
X854300Y981800D01*
X853900Y981000D01*
X854300Y980200D01*
X853500Y980600D01*
X852700Y980200D01*
Y960200D02*
X853100Y961000D01*
X852700Y961800D01*
X853500Y961400D01*
X854300Y961800D01*
X853900Y961000D01*
X854300Y960200D01*
X853500Y960600D01*
X852700Y960200D01*
Y813700D02*
X853100Y814500D01*
X852700Y815300D01*
X853500Y814900D01*
X854300Y815300D01*
X853900Y814500D01*
X854300Y813700D01*
X853500Y814100D01*
X852700Y813700D01*
Y793700D02*
X853100Y794500D01*
X852700Y795300D01*
X853500Y794900D01*
X854300Y795300D01*
X853900Y794500D01*
X854300Y793700D01*
X853500Y794100D01*
X852700Y793700D01*
X1026700Y1033450D02*
Y1035050D01*
X1028300D01*
Y1033450D01*
X1026700D01*
X1006700D02*
Y1035050D01*
X1008300D01*
Y1033450D01*
X1006700D01*
X986700D02*
Y1035050D01*
X988300D01*
Y1033450D01*
X986700D01*
X990728Y876200D02*
X989928Y877800D01*
X991528D01*
X990728Y876200D01*
X1006319D02*
X1005519Y877800D01*
X1007119D01*
X1006319Y876200D01*
X1037500D02*
X1036700Y877800D01*
X1038300D01*
X1037500Y876200D01*
X1021909D02*
X1021109Y877800D01*
X1022709D01*
X1021909Y876200D01*
X123830Y677700D02*
X124230D01*
X124630Y678100D01*
X125030Y677700D01*
X125430D01*
Y678100D01*
X125030Y678500D01*
X125430Y678900D01*
Y679300D01*
X125030D01*
X124630Y678900D01*
X124230Y679300D01*
X123830D01*
Y678900D01*
X124230Y678500D01*
X123830Y678100D01*
Y677700D01*
X143515D02*
X143915D01*
X144315Y678100D01*
X144715Y677700D01*
X145115D01*
Y678100D01*
X144715Y678500D01*
X145115Y678900D01*
Y679300D01*
X144715D01*
X144315Y678900D01*
X143915Y679300D01*
X143515D01*
Y678900D01*
X143915Y678500D01*
X143515Y678100D01*
Y677700D01*
X163200D02*
X163600D01*
X164000Y678100D01*
X164400Y677700D01*
X164800D01*
Y678100D01*
X164400Y678500D01*
X164800Y678900D01*
Y679300D01*
X164400D01*
X164000Y678900D01*
X163600Y679300D01*
X163200D01*
Y678900D01*
X163600Y678500D01*
X163200Y678100D01*
Y677700D01*
X182885D02*
X183285D01*
X183685Y678100D01*
X184085Y677700D01*
X184485D01*
Y678100D01*
X184085Y678500D01*
X184485Y678900D01*
Y679300D01*
X184085D01*
X183685Y678900D01*
X183285Y679300D01*
X182885D01*
Y678900D01*
X183285Y678500D01*
X182885Y678100D01*
Y677700D01*
X427000Y631700D02*
X427400Y632100D01*
X427800D01*
X427400Y632500D01*
X427800Y632900D01*
X427400D01*
X427000Y633300D01*
X426600Y632900D01*
X426200D01*
X426600Y632500D01*
X426200Y632100D01*
X426600D01*
X427000Y631700D01*
Y619700D02*
X427400Y620100D01*
X427800D01*
X427400Y620500D01*
X427800Y620900D01*
X427400D01*
X427000Y621300D01*
X426600Y620900D01*
X426200D01*
X426600Y620500D01*
X426200Y620100D01*
X426600D01*
X427000Y619700D01*
X331700Y640916D02*
Y642517D01*
X333300D01*
Y640916D01*
X331700D01*
X332100Y641317D02*
Y642116D01*
X332900D01*
Y641317D01*
X332100D01*
X349416Y640916D02*
Y642517D01*
X351016D01*
Y640916D01*
X349416D01*
X349816Y641317D02*
Y642116D01*
X350617D01*
Y641317D01*
X349816D01*
X367133Y640916D02*
Y642517D01*
X368733D01*
Y640916D01*
X367133D01*
X367533Y641317D02*
Y642116D01*
X368333D01*
Y641317D01*
X367533D01*
X367133Y623200D02*
Y624800D01*
X368733D01*
Y623200D01*
X367133D01*
X367533Y623600D02*
Y624400D01*
X368333D01*
Y623600D01*
X367533D01*
X349416Y623200D02*
Y624800D01*
X351016D01*
Y623200D01*
X349416D01*
X349816Y623600D02*
Y624400D01*
X350617D01*
Y623600D01*
X349816D01*
X331700Y623200D02*
Y624800D01*
X333300D01*
Y623200D01*
X331700D01*
X332100Y623600D02*
Y624400D01*
X332900D01*
Y623600D01*
X332100D01*
X278200Y609500D02*
X279000Y610300D01*
X279800Y609500D01*
X279000Y608700D01*
X278200Y609500D01*
Y579500D02*
X279000Y580300D01*
X279800Y579500D01*
X279000Y578700D01*
X278200Y579500D01*
X232700Y682500D02*
X233500Y683300D01*
X234300Y682500D01*
X233500Y681700D01*
X232700Y682500D01*
Y652500D02*
X233500Y653300D01*
X234300Y652500D01*
X233500Y651700D01*
X232700Y652500D01*
X119893Y632200D02*
Y633800D01*
X121493D01*
Y632200D01*
X119893D01*
X178948D02*
Y633800D01*
X180548D01*
Y632200D01*
X178948D01*
X397700Y633700D02*
X398100Y634500D01*
X397700Y635300D01*
X398500Y634900D01*
X399300Y635300D01*
X398900Y634500D01*
X399300Y633700D01*
X398500Y634100D01*
X397700Y633700D01*
Y613700D02*
X398100Y614500D01*
X397700Y615300D01*
X398500Y614900D01*
X399300Y615300D01*
X398900Y614500D01*
X399300Y613700D01*
X398500Y614100D01*
X397700Y613700D01*
X1145100Y665100D02*
Y664700D01*
X1145900D01*
Y665100D01*
X1146300D01*
Y665900D01*
X1145900D01*
Y666300D01*
X1145100D01*
Y665900D01*
X1144700D01*
Y665100D01*
X1145100D01*
Y656100D02*
Y655700D01*
X1145900D01*
Y656100D01*
X1146300D01*
Y656900D01*
X1145900D01*
Y657300D01*
X1145100D01*
Y656900D01*
X1144700D01*
Y656100D01*
X1145100D01*
X1088600Y680100D02*
Y679700D01*
X1089400D01*
Y680100D01*
X1089800D01*
Y680900D01*
X1089400D01*
Y681300D01*
X1088600D01*
Y680900D01*
X1088200D01*
Y680100D01*
X1088600D01*
Y689100D02*
Y688700D01*
X1089400D01*
Y689100D01*
X1089800D01*
Y689900D01*
X1089400D01*
Y690300D01*
X1088600D01*
Y689900D01*
X1088200D01*
Y689100D01*
X1088600D01*
X1011850Y680100D02*
Y679700D01*
X1012650D01*
Y680100D01*
X1013050D01*
Y680900D01*
X1012650D01*
Y681300D01*
X1011850D01*
Y680900D01*
X1011450D01*
Y680100D01*
X1011850D01*
Y689100D02*
Y688700D01*
X1012650D01*
Y689100D01*
X1013050D01*
Y689900D01*
X1012650D01*
Y690300D01*
X1011850D01*
Y689900D01*
X1011450D01*
Y689100D01*
X1011850D01*
X935100Y680100D02*
Y679700D01*
X935900D01*
Y680100D01*
X936300D01*
Y680900D01*
X935900D01*
Y681300D01*
X935100D01*
Y680900D01*
X934700D01*
Y680100D01*
X935100D01*
Y689100D02*
Y688700D01*
X935900D01*
Y689100D01*
X936300D01*
Y689900D01*
X935900D01*
Y690300D01*
X935100D01*
Y689900D01*
X934700D01*
Y689100D01*
X935100D01*
X769100Y631100D02*
Y630700D01*
X769900D01*
Y631100D01*
X770300D01*
Y631900D01*
X769900D01*
Y632300D01*
X769100D01*
Y631900D01*
X768700D01*
Y631100D01*
X769100D01*
Y640100D02*
Y639700D01*
X769900D01*
Y640100D01*
X770300D01*
Y640900D01*
X769900D01*
Y641300D01*
X769100D01*
Y640900D01*
X768700D01*
Y640100D01*
X769100D01*
X890000Y647200D02*
X890400Y647600D01*
X890800D01*
X890400Y648000D01*
X890800Y648400D01*
X890400D01*
X890000Y648800D01*
X889600Y648400D01*
X889200D01*
X889600Y648000D01*
X889200Y647600D01*
X889600D01*
X890000Y647200D01*
Y635200D02*
X890400Y635600D01*
X890800D01*
X890400Y636000D01*
X890800Y636400D01*
X890400D01*
X890000Y636800D01*
X889600Y636400D01*
X889200D01*
X889600Y636000D01*
X889200Y635600D01*
X889600D01*
X890000Y635200D01*
X804500Y666700D02*
X804900Y667100D01*
X805300D01*
X804900Y667500D01*
X805300Y667900D01*
X804900D01*
X804500Y668300D01*
X804100Y667900D01*
X803700D01*
X804100Y667500D01*
X803700Y667100D01*
X804100D01*
X804500Y666700D01*
Y646700D02*
X804900Y647100D01*
X805300D01*
X804900Y647500D01*
X805300Y647900D01*
X804900D01*
X804500Y648300D01*
X804100Y647900D01*
X803700D01*
X804100Y647500D01*
X803700Y647100D01*
X804100D01*
X804500Y646700D01*
X911700Y663200D02*
X912100Y664000D01*
X911700Y664800D01*
X912500Y664400D01*
X913300Y664800D01*
X912900Y664000D01*
X913300Y663200D01*
X912500Y663600D01*
X911700Y663200D01*
Y643200D02*
X912100Y644000D01*
X911700Y644800D01*
X912500Y644400D01*
X913300Y644800D01*
X912900Y644000D01*
X913300Y643200D01*
X912500Y643600D01*
X911700Y643200D01*
X836700Y663200D02*
X837100Y664000D01*
X836700Y664800D01*
X837500Y664400D01*
X838300Y664800D01*
X837900Y664000D01*
X838300Y663200D01*
X837500Y663600D01*
X836700Y663200D01*
Y643200D02*
X837100Y644000D01*
X836700Y644800D01*
X837500Y644400D01*
X838300Y644800D01*
X837900Y644000D01*
X838300Y643200D01*
X837500Y643600D01*
X836700Y643200D01*
X893500Y554200D02*
X893900Y554600D01*
X894300D01*
X893900Y555000D01*
X894300Y555400D01*
X893900D01*
X893500Y555800D01*
X893100Y555400D01*
X892700D01*
X893100Y555000D01*
X892700Y554600D01*
X893100D01*
X893500Y554200D01*
Y542200D02*
X893900Y542600D01*
X894300D01*
X893900Y543000D01*
X894300Y543400D01*
X893900D01*
X893500Y543800D01*
X893100Y543400D01*
X892700D01*
X893100Y543000D01*
X892700Y542600D01*
X893100D01*
X893500Y542200D01*
X915200Y531200D02*
X915600Y532000D01*
X915200Y532800D01*
X916000Y532400D01*
X916800Y532800D01*
X916400Y532000D01*
X916800Y531200D01*
X916000Y531600D01*
X915200Y531200D01*
Y511200D02*
X915600Y512000D01*
X915200Y512800D01*
X916000Y512400D01*
X916800Y512800D01*
X916400Y512000D01*
X916800Y511200D01*
X916000Y511600D01*
X915200Y511200D01*
X837700Y558200D02*
X838100Y559000D01*
X837700Y559800D01*
X838500Y559400D01*
X839300Y559800D01*
X838900Y559000D01*
X839300Y558200D01*
X838500Y558600D01*
X837700Y558200D01*
Y538200D02*
X838100Y539000D01*
X837700Y539800D01*
X838500Y539400D01*
X839300Y539800D01*
X838900Y539000D01*
X839300Y538200D01*
X838500Y538600D01*
X837700Y538200D01*
X805500Y559200D02*
X805900Y559600D01*
X806300D01*
X805900Y560000D01*
X806300Y560400D01*
X805900D01*
X805500Y560800D01*
X805100Y560400D01*
X804700D01*
X805100Y560000D01*
X804700Y559600D01*
X805100D01*
X805500Y559200D01*
Y539200D02*
X805900Y539600D01*
X806300D01*
X805900Y540000D01*
X806300Y540400D01*
X805900D01*
X805500Y540800D01*
X805100Y540400D01*
X804700D01*
X805100Y540000D01*
X804700Y539600D01*
X805100D01*
X805500Y539200D01*
X769100Y546600D02*
Y546200D01*
X769900D01*
Y546600D01*
X770300D01*
Y547400D01*
X769900D01*
Y547800D01*
X769100D01*
Y547400D01*
X768700D01*
Y546600D01*
X769100D01*
Y555600D02*
Y555200D01*
X769900D01*
Y555600D01*
X770300D01*
Y556400D01*
X769900D01*
Y556800D01*
X769100D01*
Y556400D01*
X768700D01*
Y555600D01*
X769100D01*
X1147100Y479600D02*
Y479200D01*
X1147900D01*
Y479600D01*
X1148300D01*
Y480400D01*
X1147900D01*
Y480800D01*
X1147100D01*
Y480400D01*
X1146700D01*
Y479600D01*
X1147100D01*
Y470600D02*
Y470200D01*
X1147900D01*
Y470600D01*
X1148300D01*
Y471400D01*
X1147900D01*
Y471800D01*
X1147100D01*
Y471400D01*
X1146700D01*
Y470600D01*
X1147100D01*
X1091600Y484100D02*
Y483700D01*
X1092400D01*
Y484100D01*
X1092800D01*
Y484900D01*
X1092400D01*
Y485300D01*
X1091600D01*
Y484900D01*
X1091200D01*
Y484100D01*
X1091600D01*
Y493100D02*
Y492700D01*
X1092400D01*
Y493100D01*
X1092800D01*
Y493900D01*
X1092400D01*
Y494300D01*
X1091600D01*
Y493900D01*
X1091200D01*
Y493100D01*
X1091600D01*
X1011350Y484100D02*
Y483700D01*
X1012150D01*
Y484100D01*
X1012550D01*
Y484900D01*
X1012150D01*
Y485300D01*
X1011350D01*
Y484900D01*
X1010950D01*
Y484100D01*
X1011350D01*
Y493100D02*
Y492700D01*
X1012150D01*
Y493100D01*
X1012550D01*
Y493900D01*
X1012150D01*
Y494300D01*
X1011350D01*
Y493900D01*
X1010950D01*
Y493100D01*
X1011350D01*
X931100Y484100D02*
Y483700D01*
X931900D01*
Y484100D01*
X932300D01*
Y484900D01*
X931900D01*
Y485300D01*
X931100D01*
Y484900D01*
X930700D01*
Y484100D01*
X931100D01*
Y493100D02*
Y492700D01*
X931900D01*
Y493100D01*
X932300D01*
Y493900D01*
X931900D01*
Y494300D01*
X931100D01*
Y493900D01*
X930700D01*
Y493100D01*
X931100D01*
X1034319Y622700D02*
X1033519Y624300D01*
X1035119D01*
X1034319Y622700D01*
X1049909D02*
X1049109Y624300D01*
X1050709D01*
X1049909Y622700D01*
X1081091D02*
X1080291Y624300D01*
X1081891D01*
X1081091Y622700D01*
X1065500D02*
X1064700Y624300D01*
X1066300D01*
X1065500Y622700D01*
X946909D02*
X946109Y624300D01*
X947709D01*
X946909Y622700D01*
X962500D02*
X961700Y624300D01*
X963300D01*
X962500Y622700D01*
X993681D02*
X992881Y624300D01*
X994481D01*
X993681Y622700D01*
X978091D02*
X977291Y624300D01*
X978891D01*
X978091Y622700D01*
X1118819Y580950D02*
X1118019Y582550D01*
X1119619D01*
X1118819Y580950D01*
X1134409D02*
X1133609Y582550D01*
X1135209D01*
X1134409Y580950D01*
X1165591D02*
X1164791Y582550D01*
X1166391D01*
X1165591Y580950D01*
X1150000D02*
X1149200Y582550D01*
X1150800D01*
X1150000Y580950D01*
X1118819Y539200D02*
X1118019Y540800D01*
X1119619D01*
X1118819Y539200D01*
X1134409D02*
X1133609Y540800D01*
X1135209D01*
X1134409Y539200D01*
X1165591D02*
X1164791Y540800D01*
X1166391D01*
X1165591Y539200D01*
X1150000D02*
X1149200Y540800D01*
X1150800D01*
X1150000Y539200D01*
X946909Y580950D02*
X946109Y582550D01*
X947709D01*
X946909Y580950D01*
X962500D02*
X961700Y582550D01*
X963300D01*
X962500Y580950D01*
X993681D02*
X992881Y582550D01*
X994481D01*
X993681Y580950D01*
X978091D02*
X977291Y582550D01*
X978891D01*
X978091Y580950D01*
X1034319D02*
X1033519Y582550D01*
X1035119D01*
X1034319Y580950D01*
X1049909D02*
X1049109Y582550D01*
X1050709D01*
X1049909Y580950D01*
X1081091D02*
X1080291Y582550D01*
X1081891D01*
X1081091Y580950D01*
X1065500D02*
X1064700Y582550D01*
X1066300D01*
X1065500Y580950D01*
X1118819Y622700D02*
X1118019Y624300D01*
X1119619D01*
X1118819Y622700D01*
X1134409D02*
X1133609Y624300D01*
X1135209D01*
X1134409Y622700D01*
X1165591D02*
X1164791Y624300D01*
X1166391D01*
X1165591Y622700D01*
X1150000D02*
X1149200Y624300D01*
X1150800D01*
X1150000Y622700D01*
X946819Y539200D02*
X946019Y540800D01*
X947619D01*
X946819Y539200D01*
X962409D02*
X961609Y540800D01*
X963209D01*
X962409Y539200D01*
X993591D02*
X992791Y540800D01*
X994391D01*
X993591Y539200D01*
X978000D02*
X977200Y540800D01*
X978800D01*
X978000Y539200D01*
X1034319D02*
X1033519Y540800D01*
X1035119D01*
X1034319Y539200D01*
X1049909D02*
X1049109Y540800D01*
X1050709D01*
X1049909Y539200D01*
X1081091D02*
X1080291Y540800D01*
X1081891D01*
X1081091Y539200D01*
X1065500D02*
X1064700Y540800D01*
X1066300D01*
X1065500Y539200D01*
X428000Y920200D02*
X428400Y920600D01*
X428800D01*
X428400Y921000D01*
X428800Y921400D01*
X428400D01*
X428000Y921800D01*
X427600Y921400D01*
X427200D01*
X427600Y921000D01*
X427200Y920600D01*
X427600D01*
X428000Y920200D01*
X574000Y881200D02*
X574400Y881600D01*
X574800D01*
X574400Y882000D01*
X574800Y882400D01*
X574400D01*
X574000Y882800D01*
X573600Y882400D01*
X573200D01*
X573600Y882000D01*
X573200Y881600D01*
X573600D01*
X574000Y881200D01*
D12*
X710800Y859000D02*
G03*
X710800Y859000I-800J0D01*
G01*
Y869000D02*
G03*
X710800Y869000I-800J0D01*
G01*
Y879000D02*
G03*
X710800Y879000I-800J0D01*
G01*
X704300Y1022000D02*
G03*
X704300Y1022000I-800J0D01*
G01*
Y1032000D02*
G03*
X704300Y1032000I-800J0D01*
G01*
Y1042000D02*
G03*
X704300Y1042000I-800J0D01*
G01*
X1084300Y784500D02*
G03*
X1084300Y784500I-800J0D01*
G01*
X1074300D02*
G03*
X1074300Y784500I-800J0D01*
G01*
X1064300Y1047667D02*
G03*
X1064300Y1047667I-800J0D01*
G01*
X1074300D02*
G03*
X1074300Y1047667I-800J0D01*
G01*
X1084300D02*
G03*
X1084300Y1047667I-800J0D01*
G01*
X748300Y1056000D02*
G03*
X748300Y1056000I-800J0D01*
G01*
Y1066000D02*
G03*
X748300Y1066000I-800J0D01*
G01*
Y1046000D02*
G03*
X748300Y1046000I-800J0D01*
G01*
X752300Y876000D02*
G03*
X752300Y876000I-800J0D01*
G01*
Y886000D02*
G03*
X752300Y886000I-800J0D01*
G01*
Y866000D02*
G03*
X752300Y866000I-800J0D01*
G01*
X1084300Y824000D02*
G03*
X1084300Y824000I-800J0D01*
G01*
X1074300D02*
G03*
X1074300Y824000I-800J0D01*
G01*
X1064300Y1094000D02*
G03*
X1064300Y1094000I-800J0D01*
G01*
X1074300D02*
G03*
X1074300Y1094000I-800J0D01*
G01*
X1084300D02*
G03*
X1084300Y1094000I-800J0D01*
G01*
X750300Y982000D02*
G03*
X750300Y982000I-800J0D01*
G01*
Y992000D02*
G03*
X750300Y992000I-800J0D01*
G01*
Y972000D02*
G03*
X750300Y972000I-800J0D01*
G01*
X752300Y808000D02*
G03*
X752300Y808000I-800J0D01*
G01*
Y818000D02*
G03*
X752300Y818000I-800J0D01*
G01*
Y798000D02*
G03*
X752300Y798000I-800J0D01*
G01*
X1084300Y863500D02*
G03*
X1084300Y863500I-800J0D01*
G01*
X1074300D02*
G03*
X1074300Y863500I-800J0D01*
G01*
X1064300Y1001333D02*
G03*
X1064300Y1001333I-800J0D01*
G01*
X1074300D02*
G03*
X1074300Y1001333I-800J0D01*
G01*
X1084300D02*
G03*
X1084300Y1001333I-800J0D01*
G01*
X483300Y976000D02*
G03*
X483300Y976000I-800J0D01*
G01*
Y966000D02*
G03*
X483300Y966000I-800J0D01*
G01*
Y956000D02*
G03*
X483300Y956000I-800J0D01*
G01*
Y796500D02*
G03*
X483300Y796500I-800J0D01*
G01*
Y786500D02*
G03*
X483300Y786500I-800J0D01*
G01*
Y776500D02*
G03*
X483300Y776500I-800J0D01*
G01*
X1084300Y903000D02*
G03*
X1084300Y903000I-800J0D01*
G01*
X1074300D02*
G03*
X1074300Y903000I-800J0D01*
G01*
X1064300Y955000D02*
G03*
X1064300Y955000I-800J0D01*
G01*
X1074300D02*
G03*
X1074300Y955000I-800J0D01*
G01*
X1084300D02*
G03*
X1084300Y955000I-800J0D01*
G01*
X710800Y695000D02*
G03*
X710800Y695000I-800J0D01*
G01*
Y705000D02*
G03*
X710800Y705000I-800J0D01*
G01*
Y715000D02*
G03*
X710800Y715000I-800J0D01*
G01*
X1120300Y690000D02*
G03*
X1120300Y690000I-800J0D01*
G01*
Y680000D02*
G03*
X1120300Y680000I-800J0D01*
G01*
Y670000D02*
G03*
X1120300Y670000I-800J0D01*
G01*
X1039300Y690000D02*
G03*
X1039300Y690000I-800J0D01*
G01*
Y680000D02*
G03*
X1039300Y680000I-800J0D01*
G01*
Y670000D02*
G03*
X1039300Y670000I-800J0D01*
G01*
X958300Y690000D02*
G03*
X958300Y690000I-800J0D01*
G01*
Y680000D02*
G03*
X958300Y680000I-800J0D01*
G01*
Y670000D02*
G03*
X958300Y670000I-800J0D01*
G01*
X737300Y632000D02*
G03*
X737300Y632000I-800J0D01*
G01*
Y642000D02*
G03*
X737300Y642000I-800J0D01*
G01*
Y622000D02*
G03*
X737300Y622000I-800J0D01*
G01*
X738800Y558000D02*
G03*
X738800Y558000I-800J0D01*
G01*
Y568000D02*
G03*
X738800Y568000I-800J0D01*
G01*
Y548000D02*
G03*
X738800Y548000I-800J0D01*
G01*
X1120300Y490500D02*
G03*
X1120300Y490500I-800J0D01*
G01*
Y480500D02*
G03*
X1120300Y480500I-800J0D01*
G01*
Y470500D02*
G03*
X1120300Y470500I-800J0D01*
G01*
X1037300Y490500D02*
G03*
X1037300Y490500I-800J0D01*
G01*
Y480500D02*
G03*
X1037300Y480500I-800J0D01*
G01*
Y470500D02*
G03*
X1037300Y470500I-800J0D01*
G01*
X954300Y490500D02*
G03*
X954300Y490500I-800J0D01*
G01*
Y480500D02*
G03*
X954300Y480500I-800J0D01*
G01*
Y470500D02*
G03*
X954300Y470500I-800J0D01*
G01*
X483300Y575000D02*
G03*
X483300Y575000I-800J0D01*
G01*
Y565000D02*
G03*
X483300Y565000I-800J0D01*
G01*
Y555000D02*
G03*
X483300Y555000I-800J0D01*
G01*
M02*
