G04 Layer_Physical_Order=2*
G04 Layer_Color=16711680*
%FSLAX25Y25*%
%MOIN*%
G70*
G01*
G75*
G04:AMPARAMS|DCode=10|XSize=196.85mil|YSize=157.48mil|CornerRadius=39.37mil|HoleSize=0mil|Usage=FLASHONLY|Rotation=90.000|XOffset=0mil|YOffset=0mil|HoleType=Round|Shape=RoundedRectangle|*
%AMROUNDEDRECTD10*
21,1,0.19685,0.07874,0,0,90.0*
21,1,0.11811,0.15748,0,0,90.0*
1,1,0.07874,0.03937,0.05906*
1,1,0.07874,0.03937,-0.05906*
1,1,0.07874,-0.03937,-0.05906*
1,1,0.07874,-0.03937,0.05906*
%
%ADD10ROUNDEDRECTD10*%
%ADD11R,0.05900X0.05120*%
%ADD12R,0.05000X0.06000*%
%ADD13C,0.05000*%
%ADD14C,0.08000*%
%ADD15C,0.07874*%
%ADD16R,0.07000X0.07000*%
%ADD17C,0.07000*%
%ADD18R,0.08661X0.08661*%
%ADD19R,0.08000X0.08000*%
%ADD20C,0.08000*%
%ADD21C,0.07500*%
%ADD22R,0.07500X0.07500*%
%ADD23C,0.06200*%
%ADD24O,0.07000X0.09000*%
G04:AMPARAMS|DCode=25|XSize=90mil|YSize=70mil|CornerRadius=17.5mil|HoleSize=0mil|Usage=FLASHONLY|Rotation=90.000|XOffset=0mil|YOffset=0mil|HoleType=Round|Shape=RoundedRectangle|*
%AMROUNDEDRECTD25*
21,1,0.09000,0.03500,0,0,90.0*
21,1,0.05500,0.07000,0,0,90.0*
1,1,0.03500,0.01750,0.02750*
1,1,0.03500,0.01750,-0.02750*
1,1,0.03500,-0.01750,-0.02750*
1,1,0.03500,-0.01750,0.02750*
%
%ADD25ROUNDEDRECTD25*%
%ADD26C,0.05118*%
%ADD27C,0.11811*%
%ADD28C,0.07874*%
G04:AMPARAMS|DCode=29|XSize=157.48mil|YSize=98.43mil|CornerRadius=24.61mil|HoleSize=0mil|Usage=FLASHONLY|Rotation=270.000|XOffset=0mil|YOffset=0mil|HoleType=Round|Shape=RoundedRectangle|*
%AMROUNDEDRECTD29*
21,1,0.15748,0.04921,0,0,270.0*
21,1,0.10827,0.09843,0,0,270.0*
1,1,0.04921,-0.02461,-0.05413*
1,1,0.04921,-0.02461,0.05413*
1,1,0.04921,0.02461,0.05413*
1,1,0.04921,0.02461,-0.05413*
%
%ADD29ROUNDEDRECTD29*%
D10*
X867784Y843000D02*
D03*
X903216D02*
D03*
X874284Y783500D02*
D03*
X909717D02*
D03*
X873283Y897500D02*
D03*
X908716D02*
D03*
X873283Y959000D02*
D03*
X908716D02*
D03*
X865067Y1015000D02*
D03*
X900500D02*
D03*
X876783Y1071000D02*
D03*
X912216D02*
D03*
X858784Y531000D02*
D03*
X894217D02*
D03*
X825284Y603500D02*
D03*
X860717D02*
D03*
X854784Y664000D02*
D03*
X890217D02*
D03*
X355283Y699500D02*
D03*
X390717D02*
D03*
X355283Y552500D02*
D03*
X390717D02*
D03*
X353783Y946000D02*
D03*
X389216D02*
D03*
X353783Y808500D02*
D03*
X389216D02*
D03*
D11*
X453000Y667520D02*
D03*
Y675000D02*
D03*
X451000Y908500D02*
D03*
Y915980D02*
D03*
D12*
X453500Y590000D02*
D03*
Y599000D02*
D03*
X451200Y831500D02*
D03*
Y840500D02*
D03*
X751500Y767000D02*
D03*
Y776000D02*
D03*
X755000Y907000D02*
D03*
Y916000D02*
D03*
X738000Y510000D02*
D03*
Y519000D02*
D03*
X735000Y668500D02*
D03*
Y677500D02*
D03*
X779500Y965500D02*
D03*
Y974500D02*
D03*
X775500Y1072000D02*
D03*
Y1081000D02*
D03*
D13*
X1165591Y482091D02*
Y540000D01*
X1154500Y471000D02*
X1165591Y482091D01*
X1147500Y471000D02*
X1154500D01*
X851000Y490000D02*
X876000Y515000D01*
X205500Y490000D02*
X851000D01*
X155500Y572000D02*
X156000Y572500D01*
X155500Y540000D02*
Y572000D01*
Y540000D02*
X205500Y490000D01*
X876000Y515000D02*
Y549000D01*
X866000Y559000D02*
X876000Y549000D01*
X838500Y559000D02*
X866000D01*
X978091Y646341D02*
X1011750Y680000D01*
X1012250Y680500D01*
X1011750Y493500D02*
Y680000D01*
X978091Y623500D02*
Y646341D01*
X1049909Y503909D02*
Y540000D01*
X1036500Y490500D02*
X1049909Y503909D01*
X1033500Y493500D02*
X1036500Y490500D01*
X1011750Y493500D02*
X1033500D01*
X931500Y516500D02*
X932000Y516000D01*
X945500D01*
X962409Y532909D01*
Y540000D01*
X1137000Y490500D02*
X1150000Y503500D01*
Y540000D01*
X1156000Y665500D02*
X1161000Y660500D01*
X1145500Y665500D02*
X1156000D01*
X1161000Y638500D02*
Y660500D01*
X1150000Y627500D02*
X1161000Y638500D01*
X1150000Y623500D02*
Y627500D01*
X1049909Y623500D02*
Y641409D01*
X1089000Y680500D01*
X1089500Y680000D01*
X1119500D01*
Y670000D02*
X1133000Y656500D01*
X1145500D01*
X1119500Y680000D02*
X1131000D01*
X1145500Y665500D01*
X1134409Y581750D02*
Y623500D01*
Y540000D02*
Y581750D01*
Y540000D02*
X1150000D01*
X1134409Y581750D02*
X1150000D01*
X1134409Y623500D02*
X1150000D01*
X1049909Y581750D02*
X1065500D01*
X1049909Y540000D02*
X1065500D01*
X1049909D02*
Y581750D01*
Y623500D02*
X1065500D01*
X1049909Y581750D02*
Y623500D01*
X1092000Y493500D02*
X1116500D01*
X1119500Y490500D01*
X1137000D02*
X1147500Y480000D01*
X1119500Y490500D02*
X1137000D01*
X1096000Y480500D02*
X1119500D01*
X1092000Y484500D02*
X1096000Y480500D01*
X1081091Y581750D02*
Y623500D01*
Y540000D02*
Y581750D01*
X1060000Y470500D02*
X1078000D01*
X1036500D02*
X1060000D01*
X1081091Y491590D01*
Y540000D01*
X1078000Y470500D02*
X1092000Y484500D01*
X962409Y540000D02*
X978000D01*
X962409D02*
X962500Y540091D01*
Y581750D01*
X978091D01*
X962500D02*
Y623500D01*
X978091D01*
X1015750Y480500D02*
X1036500D01*
X1011750Y484500D02*
X1015750Y480500D01*
X997750Y470500D02*
X1011750Y484500D01*
X977000Y470500D02*
X997750D01*
X977000D02*
X993591Y487090D01*
X1119500Y470500D02*
X1147000D01*
X1147500Y471000D01*
X1165591Y540000D02*
Y581750D01*
Y623500D01*
X1118819Y540000D02*
Y581750D01*
Y623500D01*
X1119500Y624181D01*
Y670000D01*
X1119000Y689500D02*
X1119500Y690000D01*
X1089000Y689500D02*
X1119000D01*
X1055000Y670000D02*
X1074500Y689500D01*
X1038500Y670000D02*
X1055000D01*
X1074500Y689500D02*
X1089000D01*
X1038000Y680500D02*
X1038500Y680000D01*
X1012250Y680500D02*
X1038000D01*
X1034319Y540000D02*
Y581750D01*
Y623500D01*
Y665819D01*
X1038500Y670000D01*
X1038000Y689500D02*
X1038500Y690000D01*
X1012250Y689500D02*
X1038000D01*
X990500D02*
X1012250D01*
X971000Y670000D02*
X990500Y689500D01*
X957500Y670000D02*
X971000D01*
X993681Y581750D02*
Y623500D01*
X993591Y540000D02*
X993681Y540091D01*
Y581750D01*
X993591Y487090D02*
Y540000D01*
X953500Y470500D02*
X977000D01*
X935500Y480500D02*
X953500D01*
X931500Y484500D02*
X935500Y480500D01*
X950500Y493500D02*
X953500Y490500D01*
X931500Y493500D02*
X950500D01*
X931500D02*
Y516500D01*
X916000Y532000D02*
X931500Y516500D01*
X925000Y484500D02*
X931500D01*
X916000Y493500D02*
X925000Y484500D01*
X916000Y493500D02*
Y512000D01*
X946819Y540000D02*
X946909Y540091D01*
Y581750D01*
Y623500D01*
Y659410D01*
X957500Y670000D01*
X957000Y680500D02*
X957500Y680000D01*
X935500Y680500D02*
X957000D01*
X935500Y667000D02*
Y680500D01*
X912500Y644000D02*
X935500Y667000D01*
X904500Y636000D02*
X912500Y644000D01*
X890000Y636000D02*
X904500D01*
X837500Y540000D02*
X838500Y539000D01*
X805500Y540000D02*
X837500D01*
X850784Y539000D02*
X858784Y531000D01*
X838500Y539000D02*
X850784D01*
X825284Y603500D02*
X838500Y590283D01*
Y559000D02*
Y590283D01*
X825284Y603500D02*
X837500Y615717D01*
Y644000D01*
X788500Y631500D02*
X804500Y647500D01*
X769500Y631500D02*
X788500D01*
X834000Y647500D02*
X837500Y644000D01*
X804500Y647500D02*
X834000D01*
X837500Y560000D02*
X838500Y559000D01*
X805500Y560000D02*
X837500D01*
X738000Y547500D02*
Y548000D01*
Y519000D02*
Y547500D01*
X705500D02*
X738000D01*
X678000Y575000D02*
X705500Y547500D01*
X482500Y575000D02*
X678000D01*
X775500Y510000D02*
X805500Y540000D01*
X738000Y510000D02*
X775500D01*
X801500Y556000D02*
X805500Y560000D01*
X769500Y556000D02*
X801500D01*
X739000Y547000D02*
X769500D01*
X767500Y558000D02*
X769500Y556000D01*
X738000Y558000D02*
X767500D01*
X913216Y512000D02*
X916000D01*
X894217Y531000D02*
X913216Y512000D01*
X893500Y531716D02*
X894217Y531000D01*
X893500Y531716D02*
Y543000D01*
Y555000D02*
X895000Y553500D01*
X907000D01*
X916000Y544500D01*
Y532000D02*
Y544500D01*
X860717Y587783D02*
X893500Y555000D01*
X860717Y587783D02*
Y603500D01*
X890000Y632784D02*
Y636000D01*
X860717Y603500D02*
X890000Y632784D01*
X935500Y689500D02*
X957000D01*
X957500Y690000D01*
X912500Y664000D02*
X913000Y664500D01*
Y676500D01*
X926000Y689500D01*
X935500D01*
X890217Y664000D02*
X912500D01*
X890000Y648000D02*
X890217Y648216D01*
Y664000D01*
X837500D02*
X854784D01*
X834000Y667500D02*
X837500Y664000D01*
X804500Y667500D02*
X834000D01*
X794500Y677500D02*
X804500Y667500D01*
X735000Y677500D02*
X794500D01*
X768000Y642000D02*
X769500Y640500D01*
X736500Y642000D02*
X768000D01*
X769000Y632000D02*
X769500Y631500D01*
X736500Y632000D02*
X769000D01*
X735000Y643500D02*
X736500Y642000D01*
X735000Y643500D02*
Y668500D01*
X729000D02*
X735000D01*
X728500Y668000D02*
X729000Y668500D01*
X710000Y686500D02*
X728500Y668000D01*
X710000Y686500D02*
Y695000D01*
X735000Y677500D02*
X735500Y678000D01*
Y690000D01*
X720500Y705000D02*
X735500Y690000D01*
X710000Y705000D02*
X720500D01*
X527500Y510000D02*
X738000D01*
X482500Y555000D02*
X527500Y510000D01*
X467000Y565000D02*
X482500D01*
X444500Y587500D02*
X467000Y565000D01*
X447000Y590000D02*
X453500D01*
X444500Y587500D02*
X447000Y590000D01*
X427000Y605000D02*
X444500Y587500D01*
X427000Y605000D02*
Y620500D01*
X442000Y676000D02*
X459500D01*
X498500Y715000D02*
X710000D01*
X459500Y676000D02*
X498500Y715000D01*
X427000Y661000D02*
X442000Y676000D01*
X427000Y632500D02*
Y661000D01*
X707000Y882000D02*
X710000Y879000D01*
X574000Y882000D02*
X707000D01*
X155000Y778500D02*
Y793000D01*
Y778500D02*
X157500Y776000D01*
X417000D01*
X453500Y739500D01*
X868500D01*
X891500Y762500D01*
Y819283D01*
X867784Y843000D02*
X891500Y819283D01*
X853500Y857283D02*
X867784Y843000D01*
X903216D02*
X934000Y873783D01*
X1083500Y1094000D02*
Y1108000D01*
X1074500Y1117000D02*
X1083500Y1108000D01*
X1051000Y1117000D02*
X1074500D01*
X1040000Y1106000D02*
X1051000Y1117000D01*
X1040000Y958500D02*
Y1106000D01*
X1014500Y933000D02*
X1040000Y958500D01*
X1006228Y933000D02*
X1014500D01*
X990728Y917500D02*
X1006228Y933000D01*
X1027500Y961500D02*
Y982000D01*
Y961500D02*
X1029000Y960000D01*
X1067500Y1108500D02*
X1073500Y1102500D01*
X1058000Y1108500D02*
X1067500D01*
X1052500Y1103000D02*
X1058000Y1108500D01*
X1052500Y948091D02*
Y1103000D01*
X1021909Y917500D02*
X1052500Y948091D01*
X1040000Y917500D02*
X1063500Y941000D01*
X1037500Y917500D02*
X1040000D01*
X1063500Y941000D02*
Y955000D01*
Y1001333D01*
Y1047667D02*
Y1094000D01*
X1083500Y955000D02*
Y1001333D01*
Y1047667D02*
Y1094000D01*
X1073500Y903000D02*
Y955000D01*
Y1001333D01*
Y1047667D01*
Y1094000D01*
Y1102500D01*
X934000Y873783D02*
Y897500D01*
X956500D02*
X959500Y894500D01*
X934000Y897500D02*
X956500D01*
X962500Y805500D02*
X977500Y790500D01*
Y773000D02*
Y790500D01*
Y773000D02*
X992500Y758000D01*
X1009500D01*
X1021909Y770409D01*
Y786433D01*
X920716Y909500D02*
X934000D01*
X908716Y897500D02*
X920716Y909500D01*
X954500D02*
X959500Y914500D01*
X934000Y909500D02*
X954500D01*
X959500Y914500D02*
X962500Y917500D01*
X990728D01*
Y786433D02*
Y831000D01*
Y877000D01*
Y917500D01*
X1006319D02*
X1021909D01*
X1006319Y877000D02*
X1021909D01*
X1006319D02*
Y917500D01*
Y831000D02*
Y877000D01*
Y831000D02*
X1021909D01*
X1006319Y786433D02*
Y831000D01*
Y786433D02*
X1021909D01*
X1083500Y1001333D02*
Y1047667D01*
Y903000D02*
Y955000D01*
Y863500D02*
Y903000D01*
Y824000D02*
Y863500D01*
Y784500D02*
Y824000D01*
X1073500Y784500D02*
Y824000D01*
Y863500D01*
Y903000D01*
X1063500Y1001333D02*
Y1047667D01*
X1037500Y831000D02*
Y877000D01*
Y917500D01*
Y786433D02*
Y831000D01*
Y748500D02*
Y786433D01*
X1028500Y739500D02*
X1037500Y748500D01*
X979500Y739500D02*
X1028500D01*
X962500Y756500D02*
X979500Y739500D01*
X962500Y756500D02*
Y785500D01*
X958500Y789500D02*
X962500Y785500D01*
X934000Y789500D02*
X958500D01*
Y801500D02*
X962500Y805500D01*
X934000Y801500D02*
X958500D01*
X934000D02*
Y812216D01*
X903216Y843000D02*
X934000Y812216D01*
X928000Y783500D02*
X934000Y789500D01*
X909717Y783500D02*
X928000D01*
X863284Y794500D02*
X874284Y783500D01*
X853500Y794500D02*
X863284D01*
X852000Y796000D02*
X853500Y794500D01*
X820500Y796000D02*
X852000D01*
Y816000D02*
X853500Y814500D01*
X820500Y816000D02*
X852000D01*
X853500Y814500D02*
X867784Y828784D01*
Y843000D01*
X853500Y857283D02*
Y887000D01*
X848000Y892500D02*
X853500Y887000D01*
X820500Y892500D02*
X848000D01*
X863783Y907000D02*
X873283Y897500D01*
X853500Y907000D02*
X863783D01*
X848000Y912500D02*
X853500Y907000D01*
X820500Y912500D02*
X848000D01*
X755000Y916000D02*
X817000D01*
X820500Y912500D01*
X811500Y956000D02*
X820500Y965000D01*
X115000Y790500D02*
X152500D01*
X107500Y798000D02*
X115000Y790500D01*
X107500Y798000D02*
Y929000D01*
X152500Y790500D02*
X155000Y793000D01*
Y805000D01*
X156000Y806000D01*
X107500Y929000D02*
X285000Y1106500D01*
X886500D01*
X894500Y1098500D01*
Y1044433D02*
Y1098500D01*
X865067Y1015000D02*
X894500Y1044433D01*
X908716Y959000D02*
X934000Y984284D01*
Y990500D01*
X940000Y984500D01*
X959500D01*
X734500Y1083000D02*
X817500D01*
X820500Y1080000D01*
X775000Y1005000D02*
X780000Y1000000D01*
X775000Y1005000D02*
Y1039500D01*
X771000Y1000000D02*
X780000D01*
X753000Y982000D02*
X771000Y1000000D01*
X749500Y982000D02*
X753000D01*
X780000Y1000000D02*
X805500D01*
X820500Y985000D01*
X849500D01*
X853500Y981000D01*
X773000Y956000D02*
X811500D01*
X820500Y965000D02*
X824500Y961000D01*
X853500D01*
X855500Y959000D01*
X873283D01*
X853500Y1003433D02*
X865067Y1015000D01*
X853500Y981000D02*
Y1003433D01*
X868283Y1079500D02*
X876783Y1071000D01*
X853500Y1079500D02*
X868283D01*
X853000Y1080000D02*
X853500Y1079500D01*
X820500Y1080000D02*
X853000D01*
X820500Y1060000D02*
X821000Y1059500D01*
X853500D01*
X865067Y1047933D01*
Y1015000D02*
Y1047933D01*
X956000Y1092000D02*
X959500Y1095500D01*
X934000Y1092000D02*
X956000D01*
X933500Y1091500D02*
X934000Y1092000D01*
X924000Y1091500D02*
X933500D01*
X912216Y1079716D02*
X924000Y1091500D01*
X912216Y1071000D02*
Y1079716D01*
X900500Y1015000D02*
X921500D01*
X934000Y1002500D01*
X972500Y973500D02*
Y995000D01*
X963000Y1004500D02*
X972500Y995000D01*
X959500Y1004500D02*
X963000D01*
X957500Y1002500D02*
X959500Y1004500D01*
X934000Y1002500D02*
X957500D01*
X955000Y1080000D02*
X959500Y1075500D01*
X934000Y1080000D02*
X955000D01*
X959500Y1004500D02*
Y1075500D01*
X972500Y973500D02*
X978000Y968000D01*
X993500D01*
X1007500Y982000D01*
X987500D02*
Y1034250D01*
Y1086500D01*
X978500Y1095500D02*
X987500Y1086500D01*
X959500Y1095500D02*
X978500D01*
X1007500Y982000D02*
Y1034250D01*
Y1086500D01*
X1027500Y982000D02*
Y1034250D01*
Y1086500D01*
X1019500Y950500D02*
X1029000Y960000D01*
X981500Y950500D02*
X1019500D01*
X959500Y972500D02*
X981500Y950500D01*
X959500Y972500D02*
Y984500D01*
X791500Y767000D02*
X820500Y796000D01*
X751500Y767000D02*
X791500D01*
X814000Y809500D02*
X820500Y816000D01*
X782000Y809500D02*
X814000D01*
X780500Y808000D02*
X782000Y809500D01*
X751500Y808000D02*
X780500D01*
X803000Y875000D02*
X820500Y892500D01*
X783500Y875000D02*
X803000D01*
X755000Y907000D02*
X760500D01*
X783500Y884000D01*
X751500Y886000D02*
X755000Y889500D01*
Y907000D01*
X744500Y886000D02*
X751500D01*
X739500Y881000D02*
X744500Y886000D01*
X739500Y876000D02*
Y881000D01*
X722500Y859000D02*
X739500Y876000D01*
X710000Y859000D02*
X722500D01*
X730500Y881000D02*
Y906000D01*
X740500Y916000D01*
X755000D01*
X718500Y869000D02*
X730500Y881000D01*
X710000Y869000D02*
X718500D01*
X585500Y972500D02*
X749500Y972000D01*
X582000Y976000D02*
X585500Y972500D01*
X750000Y796500D02*
X751500Y798000D01*
X482500Y796500D02*
X750000D01*
X482500Y776500D02*
X493000Y766000D01*
X750500D01*
X779500Y990500D02*
X780000Y991000D01*
X779500Y974500D02*
Y990500D01*
X749500Y972000D02*
X752000Y974500D01*
X779500D01*
X482500Y976000D02*
X582000D01*
X764253Y1039500D02*
X775000D01*
X747753Y1056000D02*
X764253Y1039500D01*
X747500Y1056000D02*
X747753D01*
X775000Y1048500D02*
X775500Y1049000D01*
Y1072000D01*
X769500Y1066000D02*
X775500Y1072000D01*
X747500Y1066000D02*
X769500D01*
X740500D02*
X747500D01*
X735500Y1061000D02*
X740500Y1066000D01*
X735500Y1037000D02*
Y1061000D01*
X720500Y1022000D02*
X735500Y1037000D01*
X703500Y1022000D02*
X720500D01*
X724000Y1072500D02*
X734500Y1083000D01*
X724000Y1038000D02*
Y1072500D01*
X718000Y1032000D02*
X724000Y1038000D01*
X703500Y1032000D02*
X718000D01*
X751500Y876000D02*
X782500D01*
X779500Y798000D02*
X782000Y800500D01*
X751500Y798000D02*
X779500D01*
X751500Y779500D02*
Y798000D01*
D14*
X428000Y921000D02*
Y952000D01*
Y884500D02*
Y921000D01*
X773000Y956000D02*
X778000Y961000D01*
X482500Y956000D02*
X773000D01*
X467500Y786500D02*
X482500D01*
X451000D02*
X467500D01*
Y961500D01*
X472000Y966000D01*
X482500D01*
X494000Y1042000D02*
X703500D01*
X428000Y952000D02*
Y976000D01*
Y952000D02*
X436500D01*
X451000Y937500D01*
Y921000D02*
Y937500D01*
X428000Y809500D02*
X451000Y786500D01*
X428000Y809500D02*
Y837000D01*
X433500Y831500D01*
X428000Y837000D02*
Y872500D01*
X433500Y831500D02*
X449500D01*
X428000Y976000D02*
X494000Y1042000D01*
X423000Y867500D02*
X428000Y872500D01*
X399500Y867500D02*
X423000D01*
X425000Y887500D02*
X428000Y884500D01*
X399500Y887500D02*
X425000D01*
X451000Y844500D02*
Y904500D01*
X453000Y599500D02*
Y667520D01*
X230500Y922000D02*
X334000D01*
X421000Y614500D02*
X427000Y620500D01*
X398500Y614500D02*
X421000D01*
X425000Y634500D02*
X427000Y632500D01*
X398500Y634500D02*
X425000D01*
X398500D02*
Y691716D01*
X390717Y699500D02*
X398500Y691716D01*
X390717Y606716D02*
X398500Y614500D01*
X390717Y552500D02*
Y606716D01*
X367933Y565150D02*
Y624000D01*
X355283Y552500D02*
X367933Y565150D01*
Y641716D02*
Y686850D01*
X355283Y699500D02*
X367933Y686850D01*
X349500Y623283D02*
X350217Y624000D01*
X349500Y605500D02*
Y623283D01*
X323500Y579500D02*
X349500Y605500D01*
X279000Y579500D02*
X323500D01*
X215500Y700500D02*
X310500D01*
X350217Y660783D01*
Y641716D02*
Y660783D01*
X353783Y808500D02*
X367933Y822650D01*
X389216Y946000D02*
X399500Y935717D01*
X389216Y808500D02*
X399500Y818783D01*
X353783Y946000D02*
X367933Y931850D01*
X279000Y609500D02*
Y637000D01*
X233500Y682500D02*
X279000Y637000D01*
X233500Y625000D02*
X279000Y579500D01*
X233500Y625000D02*
Y652500D01*
X207500Y678500D02*
X233500Y652500D01*
X183685Y678500D02*
X207500D01*
X215500Y700500D02*
X233500Y682500D01*
X136000Y700500D02*
X215500D01*
X124630Y689130D02*
X136000Y700500D01*
X124630Y678500D02*
Y689130D01*
X399500Y887500D02*
Y935717D01*
Y818783D02*
Y867500D01*
X367933Y822650D02*
Y868500D01*
Y886217D02*
Y931850D01*
X350217Y868500D02*
X351000Y867717D01*
Y850000D02*
Y867717D01*
X303000Y802000D02*
X351000Y850000D01*
X279000Y802000D02*
X303000D01*
X350217Y886217D02*
Y905783D01*
X334000Y922000D02*
X350217Y905783D01*
X279000Y832000D02*
Y873500D01*
X233500Y919000D02*
X279000Y873500D01*
X230500Y922000D02*
X233500Y919000D01*
X140130Y922000D02*
X230500D01*
X124630Y906500D02*
X140130Y922000D01*
X233500Y847500D02*
X279000Y802000D01*
X233500Y847500D02*
Y889000D01*
X201185D02*
X233500D01*
X183685Y906500D02*
X201185Y889000D01*
X179748Y809748D02*
Y858500D01*
X176000Y806000D02*
X179748Y809748D01*
X120693Y821307D02*
Y858500D01*
Y821307D02*
X136000Y806000D01*
X164000Y874248D02*
X179748Y858500D01*
X164000Y874248D02*
Y906500D01*
X144315Y882122D02*
Y906500D01*
X120693Y858500D02*
X144315Y882122D01*
X179748Y576248D02*
Y633000D01*
X176000Y572500D02*
X179748Y576248D01*
X164000Y648748D02*
X179748Y633000D01*
X164000Y648748D02*
Y678500D01*
X144315Y656622D02*
Y678500D01*
X120693Y633000D02*
X144315Y656622D01*
X120693Y587807D02*
Y633000D01*
Y587807D02*
X136000Y572500D01*
D15*
D03*
X156000D02*
D03*
X176000D02*
D03*
X136000Y806000D02*
D03*
X156000D02*
D03*
X176000D02*
D03*
X1027500Y982000D02*
D03*
X1007500D02*
D03*
X987500D02*
D03*
X120693Y858500D02*
D03*
X179748D02*
D03*
X1027500Y1086500D02*
D03*
X1007500D02*
D03*
X987500D02*
D03*
X1027500Y1034250D02*
D03*
X1007500D02*
D03*
X987500D02*
D03*
X120693Y633000D02*
D03*
X179748D02*
D03*
D16*
X710000Y859000D02*
D03*
X703500Y1022000D02*
D03*
X482500Y976000D02*
D03*
Y796500D02*
D03*
X710000Y695000D02*
D03*
X1119500Y690000D02*
D03*
X1038500D02*
D03*
X957500D02*
D03*
X1119500Y490500D02*
D03*
X1036500D02*
D03*
X953500D02*
D03*
X482500Y575000D02*
D03*
D17*
X710000Y869000D02*
D03*
Y879000D02*
D03*
X703500Y1032000D02*
D03*
Y1042000D02*
D03*
X482500Y966000D02*
D03*
Y956000D02*
D03*
Y786500D02*
D03*
Y776500D02*
D03*
X710000Y705000D02*
D03*
Y715000D02*
D03*
X1119500Y680000D02*
D03*
Y670000D02*
D03*
X1038500Y680000D02*
D03*
Y670000D02*
D03*
X957500Y680000D02*
D03*
Y670000D02*
D03*
X1119500Y480500D02*
D03*
Y470500D02*
D03*
X1036500Y480500D02*
D03*
Y470500D02*
D03*
X953500Y480500D02*
D03*
Y470500D02*
D03*
X482500Y565000D02*
D03*
Y555000D02*
D03*
D18*
X990728Y786433D02*
D03*
X1006319D02*
D03*
X1037500D02*
D03*
X1021909D02*
D03*
X990728Y917500D02*
D03*
X1006319D02*
D03*
X1037500D02*
D03*
X1021909D02*
D03*
X990728Y831000D02*
D03*
X1006319D02*
D03*
X1037500D02*
D03*
X1021909D02*
D03*
X990728Y877000D02*
D03*
X1006319D02*
D03*
X1037500D02*
D03*
X1021909D02*
D03*
X1034319Y623500D02*
D03*
X1049909D02*
D03*
X1081091D02*
D03*
X1065500D02*
D03*
X946909D02*
D03*
X962500D02*
D03*
X993681D02*
D03*
X978091D02*
D03*
X1118819Y581750D02*
D03*
X1134409D02*
D03*
X1165591D02*
D03*
X1150000D02*
D03*
X1118819Y540000D02*
D03*
X1134409D02*
D03*
X1165591D02*
D03*
X1150000D02*
D03*
X946909Y581750D02*
D03*
X962500D02*
D03*
X993681D02*
D03*
X978091D02*
D03*
X1034319D02*
D03*
X1049909D02*
D03*
X1081091D02*
D03*
X1065500D02*
D03*
X1118819Y623500D02*
D03*
X1134409D02*
D03*
X1165591D02*
D03*
X1150000D02*
D03*
X946819Y540000D02*
D03*
X962409D02*
D03*
X993591D02*
D03*
X978000D02*
D03*
X1034319D02*
D03*
X1049909D02*
D03*
X1081091D02*
D03*
X1065500D02*
D03*
D19*
X1083500Y784500D02*
D03*
Y824000D02*
D03*
Y863500D02*
D03*
Y903000D02*
D03*
D20*
X1073500Y784500D02*
D03*
Y824000D02*
D03*
Y863500D02*
D03*
Y903000D02*
D03*
D21*
X1063500Y1047667D02*
D03*
X1073500D02*
D03*
X747500Y1056000D02*
D03*
Y1066000D02*
D03*
Y1046000D02*
D03*
X751500Y876000D02*
D03*
Y886000D02*
D03*
Y866000D02*
D03*
X1063500Y1094000D02*
D03*
X1073500D02*
D03*
X749500Y982000D02*
D03*
Y992000D02*
D03*
Y972000D02*
D03*
X751500Y808000D02*
D03*
Y818000D02*
D03*
Y798000D02*
D03*
X1063500Y1001333D02*
D03*
X1073500D02*
D03*
X1063500Y955000D02*
D03*
X1073500D02*
D03*
X736500Y632000D02*
D03*
Y642000D02*
D03*
Y622000D02*
D03*
X738000Y558000D02*
D03*
Y568000D02*
D03*
Y548000D02*
D03*
D22*
X1083500Y1047667D02*
D03*
Y1094000D02*
D03*
Y1001333D02*
D03*
Y955000D02*
D03*
D23*
X934000Y909500D02*
D03*
Y897500D02*
D03*
X820500Y912500D02*
D03*
Y892500D02*
D03*
X934000Y1092000D02*
D03*
Y1080000D02*
D03*
X820500D02*
D03*
Y1060000D02*
D03*
X428000Y884500D02*
D03*
Y872500D02*
D03*
X934000Y801500D02*
D03*
Y789500D02*
D03*
Y1002500D02*
D03*
Y990500D02*
D03*
X820500Y985000D02*
D03*
Y965000D02*
D03*
Y816000D02*
D03*
Y796000D02*
D03*
X427000Y632500D02*
D03*
Y620500D02*
D03*
X890000Y648000D02*
D03*
Y636000D02*
D03*
X804500Y667500D02*
D03*
Y647500D02*
D03*
X893500Y555000D02*
D03*
Y543000D02*
D03*
X805500Y560000D02*
D03*
Y540000D02*
D03*
X428000Y921000D02*
D03*
X574000Y882000D02*
D03*
D24*
X959500Y914500D02*
D03*
X853500Y907000D02*
D03*
X959500Y1095500D02*
D03*
X853500Y1079500D02*
D03*
X399500Y887500D02*
D03*
X962500Y805500D02*
D03*
X959500Y1004500D02*
D03*
X853500Y981000D02*
D03*
Y814500D02*
D03*
X398500Y634500D02*
D03*
X912500Y664000D02*
D03*
X837500D02*
D03*
X916000Y532000D02*
D03*
X838500Y559000D02*
D03*
D25*
X959500Y894500D02*
D03*
X853500Y887000D02*
D03*
X959500Y1075500D02*
D03*
X853500Y1059500D02*
D03*
X399500Y867500D02*
D03*
X962500Y785500D02*
D03*
X959500Y984500D02*
D03*
X853500Y961000D02*
D03*
Y794500D02*
D03*
X398500Y614500D02*
D03*
X912500Y644000D02*
D03*
X837500D02*
D03*
X916000Y512000D02*
D03*
X838500Y539000D02*
D03*
D26*
X783500Y875000D02*
D03*
Y884000D02*
D03*
X775000Y1039500D02*
D03*
Y1048500D02*
D03*
X780000Y991000D02*
D03*
Y1000000D02*
D03*
X782000Y800500D02*
D03*
Y809500D02*
D03*
X1145500Y665500D02*
D03*
Y656500D02*
D03*
X1089000Y680500D02*
D03*
Y689500D02*
D03*
X1012250Y680500D02*
D03*
Y689500D02*
D03*
X935500Y680500D02*
D03*
Y689500D02*
D03*
X769500Y631500D02*
D03*
Y640500D02*
D03*
Y547000D02*
D03*
Y556000D02*
D03*
X1147500Y480000D02*
D03*
Y471000D02*
D03*
X1092000Y484500D02*
D03*
Y493500D02*
D03*
X1011750Y484500D02*
D03*
Y493500D02*
D03*
X931500Y484500D02*
D03*
Y493500D02*
D03*
D27*
X124630Y906500D02*
D03*
X144315D02*
D03*
X164000D02*
D03*
X183685D02*
D03*
X124630Y678500D02*
D03*
X144315D02*
D03*
X164000D02*
D03*
X183685D02*
D03*
D28*
X279000Y832000D02*
D03*
Y802000D02*
D03*
X233500Y919000D02*
D03*
Y889000D02*
D03*
X279000Y609500D02*
D03*
Y579500D02*
D03*
X233500Y682500D02*
D03*
Y652500D02*
D03*
D29*
X367933Y868500D02*
D03*
X350217D02*
D03*
X332500D02*
D03*
Y886217D02*
D03*
X350217D02*
D03*
X367933D02*
D03*
X332500Y641716D02*
D03*
X350217D02*
D03*
X367933D02*
D03*
Y624000D02*
D03*
X350217D02*
D03*
X332500D02*
D03*
M02*
