%FSTAX23Y23*%
%MOIN*%
%SFA1B1*%

%IPPOS*%
%AMD10*
4,1,8,0.039300,0.098400,-0.039300,0.098400,-0.078700,0.059000,-0.078700,-0.059000,-0.039300,-0.098400,0.039300,-0.098400,0.078700,-0.059000,0.078700,0.059000,0.039300,0.098400,0.0*
1,1,0.078700,0.039300,0.059000*
1,1,0.078700,-0.039300,0.059000*
1,1,0.078700,-0.039300,-0.059000*
1,1,0.078700,0.039300,-0.059000*
%
%AMD25*
4,1,8,0.017500,0.045000,-0.017500,0.045000,-0.035000,0.027500,-0.035000,-0.027500,-0.017500,-0.045000,0.017500,-0.045000,0.035000,-0.027500,0.035000,0.027500,0.017500,0.045000,0.0*
1,1,0.035000,0.017500,0.027500*
1,1,0.035000,-0.017500,0.027500*
1,1,0.035000,-0.017500,-0.027500*
1,1,0.035000,0.017500,-0.027500*
%
%AMD29*
4,1,8,0.024600,0.078700,-0.024600,0.078700,-0.049200,0.054100,-0.049200,-0.054100,-0.024600,-0.078700,0.024600,-0.078700,0.049200,-0.054100,0.049200,0.054100,0.024600,0.078700,0.0*
1,1,0.049200,0.024600,0.054100*
1,1,0.049200,-0.024600,0.054100*
1,1,0.049200,-0.024600,-0.054100*
1,1,0.049200,0.024600,-0.054100*
%
G04~CAMADD=10~8~0.0~0.0~1574.0~1968.0~393.5~0.0~15~0.0~0.0~0.0~0.0~0~0.0~0.0~0.0~0.0~0~0.0~0.0~0.0~0.0~1574.0~1968.0*
%ADD10D10*%
%ADD11R,0.059000X0.051200*%
%ADD12R,0.050000X0.060000*%
%ADD13C,0.050000*%
%ADD14C,0.080000*%
%ADD15C,0.078740*%
%ADD16R,0.070000X0.070000*%
%ADD17C,0.070000*%
%ADD18R,0.086610X0.086610*%
%ADD19R,0.080000X0.080000*%
%ADD20C,0.080000*%
%ADD21C,0.075000*%
%ADD22R,0.075000X0.075000*%
%ADD23C,0.062000*%
%ADD24O,0.070000X0.090000*%
G04~CAMADD=25~8~0.0~0.0~700.0~900.0~175.0~0.0~15~0.0~0.0~0.0~0.0~0~0.0~0.0~0.0~0.0~0~0.0~0.0~0.0~0.0~700.0~900.0*
%ADD25D25*%
%ADD26C,0.051180*%
%ADD27C,0.118110*%
%ADD28C,0.078740*%
G04~CAMADD=29~8~0.0~0.0~984.0~1574.0~246.0~0.0~15~0.0~0.0~0.0~0.0~0~0.0~0.0~0.0~0.0~0~0.0~0.0~0.0~0.0~984.0~1574.0*
%ADD29D29*%
%LNpcb1-1*%
%LPD*%
G54D10*
X08677Y0843D03*
X09032D03*
X08742Y07835D03*
X09097D03*
X08732Y08975D03*
X09087D03*
X08732Y0959D03*
X09087D03*
X0865Y1015D03*
X09005D03*
X08767Y1071D03*
X09122D03*
X08587Y0531D03*
X08942D03*
X08252Y06035D03*
X08607D03*
X08547Y0664D03*
X08902D03*
X03552Y06995D03*
X03907D03*
X03552Y05525D03*
X03907D03*
X03537Y0946D03*
X03892D03*
X03537Y08085D03*
X03892D03*
G54D11*
X0453Y06675D03*
Y0675D03*
X0451Y09085D03*
Y09159D03*
G54D12*
X04535Y059D03*
Y0599D03*
X04512Y08315D03*
Y08405D03*
X07515Y0767D03*
Y0776D03*
X0755Y0907D03*
Y0916D03*
X0738Y051D03*
Y0519D03*
X0735Y06685D03*
Y06775D03*
X07795Y09655D03*
Y09745D03*
X07755Y1072D03*
Y1081D03*
G54D13*
X11655Y0482D02*
Y054D01*
X11545Y0471D02*
X11655Y0482D01*
X11475Y0471D02*
X11545D01*
X0851Y049D02*
X0876Y0515D01*
X02055Y049D02*
X0851D01*
X01555Y0572D02*
X0156Y05725D01*
X01555Y054D02*
Y0572D01*
Y054D02*
X02055Y049D01*
X0876Y0515D02*
Y0549D01*
X0866Y0559D02*
X0876Y0549D01*
X08385Y0559D02*
X0866D01*
X0978Y06463D02*
X10117Y068D01*
X10122Y06805*
X10117Y04935D02*
Y068D01*
X0978Y06235D02*
Y06463D01*
X10499Y05039D02*
Y054D01*
X10365Y04905D02*
X10499Y05039D01*
X10335Y04935D02*
X10365Y04905D01*
X10117Y04935D02*
X10335D01*
X09315Y05165D02*
X0932Y0516D01*
X09455*
X09624Y05329*
Y054*
X1137Y04905D02*
X115Y05035D01*
Y054*
X1156Y06655D02*
X1161Y06605D01*
X11455Y06655D02*
X1156D01*
X1161Y06385D02*
Y06605D01*
X115Y06275D02*
X1161Y06385D01*
X115Y06235D02*
Y06275D01*
X10499Y06235D02*
Y06414D01*
X1089Y06805*
X10895Y068*
X11195*
Y067D02*
X1133Y06565D01*
X11455*
X11195Y068D02*
X1131D01*
X11455Y06655*
X11344Y05817D02*
Y06235D01*
Y054D02*
Y05817D01*
Y054D02*
X115D01*
X11344Y05817D02*
X115D01*
X11344Y06235D02*
X115D01*
X10499Y05817D02*
X10655D01*
X10499Y054D02*
X10655D01*
X10499D02*
Y05817D01*
Y06235D02*
X10655D01*
X10499Y05817D02*
Y06235D01*
X1092Y04935D02*
X11165D01*
X11195Y04905*
X1137D02*
X11475Y048D01*
X11195Y04905D02*
X1137D01*
X1096Y04805D02*
X11195D01*
X1092Y04845D02*
X1096Y04805D01*
X1081Y05817D02*
Y06235D01*
Y054D02*
Y05817D01*
X106Y04705D02*
X1078D01*
X10365D02*
X106D01*
X1081Y04915*
Y054*
X1078Y04705D02*
X1092Y04845D01*
X09624Y054D02*
X0978D01*
X09624D02*
X09625Y054D01*
Y05817*
X0978*
X09625D02*
Y06235D01*
X0978*
X10157Y04805D02*
X10365D01*
X10117Y04845D02*
X10157Y04805D01*
X09977Y04705D02*
X10117Y04845D01*
X0977Y04705D02*
X09977D01*
X0977D02*
X09935Y0487D01*
X11195Y04705D02*
X1147D01*
X11475Y0471*
X11655Y054D02*
Y05817D01*
Y06235*
X11188Y054D02*
Y05817D01*
Y06235*
X11195Y06241*
Y067*
X1119Y06895D02*
X11195Y069D01*
X1089Y06895D02*
X1119D01*
X1055Y067D02*
X10745Y06895D01*
X10385Y067D02*
X1055D01*
X10745Y06895D02*
X1089D01*
X1038Y06805D02*
X10385Y068D01*
X10122Y06805D02*
X1038D01*
X10343Y054D02*
Y05817D01*
Y06235*
Y06658*
X10385Y067*
X1038Y06895D02*
X10385Y069D01*
X10122Y06895D02*
X1038D01*
X09905D02*
X10122D01*
X0971Y067D02*
X09905Y06895D01*
X09575Y067D02*
X0971D01*
X09936Y05817D02*
Y06235D01*
X09935Y054D02*
X09936Y054D01*
Y05817*
X09935Y0487D02*
Y054D01*
X09535Y04705D02*
X0977D01*
X09355Y04805D02*
X09535D01*
X09315Y04845D02*
X09355Y04805D01*
X09505Y04935D02*
X09535Y04905D01*
X09315Y04935D02*
X09505D01*
X09315D02*
Y05165D01*
X0916Y0532D02*
X09315Y05165D01*
X0925Y04845D02*
X09315D01*
X0916Y04935D02*
X0925Y04845D01*
X0916Y04935D02*
Y0512D01*
X09468Y054D02*
X09469Y054D01*
Y05817*
Y06235*
Y06594*
X09575Y067*
X0957Y06805D02*
X09575Y068D01*
X09355Y06805D02*
X0957D01*
X09355Y0667D02*
Y06805D01*
X09125Y0644D02*
X09355Y0667D01*
X09045Y0636D02*
X09125Y0644D01*
X089Y0636D02*
X09045D01*
X08375Y054D02*
X08385Y0539D01*
X08055Y054D02*
X08375D01*
X08507Y0539D02*
X08587Y0531D01*
X08385Y0539D02*
X08507D01*
X08252Y06035D02*
X08385Y05902D01*
Y0559D02*
Y05902D01*
X08252Y06035D02*
X08375Y06157D01*
Y0644*
X07885Y06315D02*
X08045Y06475D01*
X07695Y06315D02*
X07885D01*
X0834Y06475D02*
X08375Y0644D01*
X08045Y06475D02*
X0834D01*
X08375Y056D02*
X08385Y0559D01*
X08055Y056D02*
X08375D01*
X0738Y05475D02*
Y0548D01*
Y0519D02*
Y05475D01*
X07055D02*
X0738D01*
X0678Y0575D02*
X07055Y05475D01*
X04825Y0575D02*
X0678D01*
X07755Y051D02*
X08055Y054D01*
X0738Y051D02*
X07755D01*
X08015Y0556D02*
X08055Y056D01*
X07695Y0556D02*
X08015D01*
X0739Y0547D02*
X07695D01*
X07675Y0558D02*
X07695Y0556D01*
X0738Y0558D02*
X07675D01*
X09132Y0512D02*
X0916D01*
X08942Y0531D02*
X09132Y0512D01*
X08935Y05317D02*
X08942Y0531D01*
X08935Y05317D02*
Y0543D01*
Y0555D02*
X0895Y05535D01*
X0907*
X0916Y05445*
Y0532D02*
Y05445D01*
X08607Y05877D02*
X08935Y0555D01*
X08607Y05877D02*
Y06035D01*
X089Y06327D02*
Y0636D01*
X08607Y06035D02*
X089Y06327D01*
X09355Y06895D02*
X0957D01*
X09575Y069*
X09125Y0664D02*
X0913Y06645D01*
Y06765*
X0926Y06895*
X09355*
X08902Y0664D02*
X09125D01*
X089Y0648D02*
X08902Y06482D01*
Y0664*
X08375D02*
X08547D01*
X0834Y06675D02*
X08375Y0664D01*
X08045Y06675D02*
X0834D01*
X07945Y06775D02*
X08045Y06675D01*
X0735Y06775D02*
X07945D01*
X0768Y0642D02*
X07695Y06405D01*
X07365Y0642D02*
X0768D01*
X0769Y0632D02*
X07695Y06315D01*
X07365Y0632D02*
X0769D01*
X0735Y06435D02*
X07365Y0642D01*
X0735Y06435D02*
Y06685D01*
X0729D02*
X0735D01*
X07285Y0668D02*
X0729Y06685D01*
X071Y06865D02*
X07285Y0668D01*
X071Y06865D02*
Y0695D01*
X0735Y06775D02*
X07355Y0678D01*
Y069*
X07205Y0705D02*
X07355Y069D01*
X071Y0705D02*
X07205D01*
X05275Y051D02*
X0738D01*
X04825Y0555D02*
X05275Y051D01*
X0467Y0565D02*
X04825D01*
X04445Y05875D02*
X0467Y0565D01*
X0447Y059D02*
X04535D01*
X04445Y05875D02*
X0447Y059D01*
X0427Y0605D02*
X04445Y05875D01*
X0427Y0605D02*
Y06205D01*
X0442Y0676D02*
X04595D01*
X04985Y0715D02*
X071D01*
X04595Y0676D02*
X04985Y0715D01*
X0427Y0661D02*
X0442Y0676D01*
X0427Y06325D02*
Y0661D01*
X0707Y0882D02*
X071Y0879D01*
X0574Y0882D02*
X0707D01*
X0155Y07785D02*
Y0793D01*
Y07785D02*
X01575Y0776D01*
X0417*
X04535Y07395*
X08685*
X08915Y07625*
Y08192*
X08677Y0843D02*
X08915Y08192D01*
X08535Y08572D02*
X08677Y0843D01*
X09032D02*
X0934Y08737D01*
X10835Y1094D02*
Y1108D01*
X10745Y1117D02*
X10835Y1108D01*
X1051Y1117D02*
X10745D01*
X104Y1106D02*
X1051Y1117D01*
X104Y09585D02*
Y1106D01*
X10145Y0933D02*
X104Y09585D01*
X10062Y0933D02*
X10145D01*
X09907Y09175D02*
X10062Y0933D01*
X10275Y09615D02*
Y0982D01*
Y09615D02*
X1029Y096D01*
X10675Y11085D02*
X10735Y11025D01*
X1058Y11085D02*
X10675D01*
X10525Y1103D02*
X1058Y11085D01*
X10525Y0948D02*
Y1103D01*
X10219Y09175D02*
X10525Y0948D01*
X104Y09175D02*
X10635Y0941D01*
X10375Y09175D02*
X104D01*
X10635Y0941D02*
Y0955D01*
Y10013*
Y10476D02*
Y1094D01*
X10835Y0955D02*
Y10013D01*
Y10476D02*
Y1094D01*
X10735Y0903D02*
Y0955D01*
Y10013*
Y10476*
Y1094*
Y11025*
X0934Y08737D02*
Y08975D01*
X09565D02*
X09595Y08945D01*
X0934Y08975D02*
X09565D01*
X09625Y08055D02*
X09775Y07905D01*
Y0773D02*
Y07905D01*
Y0773D02*
X09925Y0758D01*
X10095*
X10219Y07704*
Y07864*
X09207Y09095D02*
X0934D01*
X09087Y08975D02*
X09207Y09095D01*
X09545D02*
X09595Y09145D01*
X0934Y09095D02*
X09545D01*
X09595Y09145D02*
X09625Y09175D01*
X09907*
Y07864D02*
Y0831D01*
Y0877*
Y09175*
X10063D02*
X10219D01*
X10063Y0877D02*
X10219D01*
X10063D02*
Y09175D01*
Y0831D02*
Y0877D01*
Y0831D02*
X10219D01*
X10063Y07864D02*
Y0831D01*
Y07864D02*
X10219D01*
X10835Y10013D02*
Y10476D01*
Y0903D02*
Y0955D01*
Y08635D02*
Y0903D01*
Y0824D02*
Y08635D01*
Y07845D02*
Y0824D01*
X10735Y07845D02*
Y0824D01*
Y08635*
Y0903*
X10635Y10013D02*
Y10476D01*
X10375Y0831D02*
Y0877D01*
Y09175*
Y07864D02*
Y0831D01*
Y07485D02*
Y07864D01*
X10285Y07395D02*
X10375Y07485D01*
X09795Y07395D02*
X10285D01*
X09625Y07565D02*
X09795Y07395D01*
X09625Y07565D02*
Y07855D01*
X09585Y07895D02*
X09625Y07855D01*
X0934Y07895D02*
X09585D01*
Y08015D02*
X09625Y08055D01*
X0934Y08015D02*
X09585D01*
X0934D02*
Y08122D01*
X09032Y0843D02*
X0934Y08122D01*
X0928Y07835D02*
X0934Y07895D01*
X09097Y07835D02*
X0928D01*
X08632Y07945D02*
X08742Y07835D01*
X08535Y07945D02*
X08632D01*
X0852Y0796D02*
X08535Y07945D01*
X08205Y0796D02*
X0852D01*
Y0816D02*
X08535Y08145D01*
X08205Y0816D02*
X0852D01*
X08535Y08145D02*
X08677Y08287D01*
Y0843*
X08535Y08572D02*
Y0887D01*
X0848Y08925D02*
X08535Y0887D01*
X08205Y08925D02*
X0848D01*
X08637Y0907D02*
X08732Y08975D01*
X08535Y0907D02*
X08637D01*
X0848Y09125D02*
X08535Y0907D01*
X08205Y09125D02*
X0848D01*
X0755Y0916D02*
X0817D01*
X08205Y09125*
X08115Y0956D02*
X08205Y0965D01*
X0115Y07905D02*
X01525D01*
X01075Y0798D02*
X0115Y07905D01*
X01075Y0798D02*
Y0929D01*
X01525Y07905D02*
X0155Y0793D01*
Y0805*
X0156Y0806*
X01075Y0929D02*
X0285Y11065D01*
X08865*
X08945Y10985*
Y10444D02*
Y10985D01*
X0865Y1015D02*
X08945Y10444D01*
X09087Y0959D02*
X0934Y09842D01*
Y09905*
X094Y09845*
X09595*
X07345Y1083D02*
X08175D01*
X08205Y108*
X0775Y1005D02*
X078Y1D01*
X0775Y1005D02*
Y10395D01*
X0771Y1D02*
X078D01*
X0753Y0982D02*
X0771Y1D01*
X07495Y0982D02*
X0753D01*
X078Y1D02*
X08055D01*
X08205Y0985*
X08495*
X08535Y0981*
X0773Y0956D02*
X08115D01*
X08205Y0965D02*
X08245Y0961D01*
X08535*
X08555Y0959*
X08732*
X08535Y10034D02*
X0865Y1015D01*
X08535Y0981D02*
Y10034D01*
X08682Y10795D02*
X08767Y1071D01*
X08535Y10795D02*
X08682D01*
X0853Y108D02*
X08535Y10795D01*
X08205Y108D02*
X0853D01*
X08205Y106D02*
X0821Y10595D01*
X08535*
X0865Y10479*
Y1015D02*
Y10479D01*
X0956Y1092D02*
X09595Y10955D01*
X0934Y1092D02*
X0956D01*
X09335Y10915D02*
X0934Y1092D01*
X0924Y10915D02*
X09335D01*
X09122Y10797D02*
X0924Y10915D01*
X09122Y1071D02*
Y10797D01*
X09005Y1015D02*
X09215D01*
X0934Y10025*
X09725Y09735D02*
Y0995D01*
X0963Y10045D02*
X09725Y0995D01*
X09595Y10045D02*
X0963D01*
X09575Y10025D02*
X09595Y10045D01*
X0934Y10025D02*
X09575D01*
X0955Y108D02*
X09595Y10755D01*
X0934Y108D02*
X0955D01*
X09595Y10045D02*
Y10755D01*
X09725Y09735D02*
X0978Y0968D01*
X09935*
X10075Y0982*
X09875D02*
Y10342D01*
Y10865*
X09785Y10955D02*
X09875Y10865D01*
X09595Y10955D02*
X09785D01*
X10075Y0982D02*
Y10342D01*
Y10865*
X10275Y0982D02*
Y10342D01*
Y10865*
X10195Y09505D02*
X1029Y096D01*
X09815Y09505D02*
X10195D01*
X09595Y09725D02*
X09815Y09505D01*
X09595Y09725D02*
Y09845D01*
X07915Y0767D02*
X08205Y0796D01*
X07515Y0767D02*
X07915D01*
X0814Y08095D02*
X08205Y0816D01*
X0782Y08095D02*
X0814D01*
X07805Y0808D02*
X0782Y08095D01*
X07515Y0808D02*
X07805D01*
X0803Y0875D02*
X08205Y08925D01*
X07835Y0875D02*
X0803D01*
X0755Y0907D02*
X07605D01*
X07835Y0884*
X07515Y0886D02*
X0755Y08895D01*
Y0907*
X07445Y0886D02*
X07515D01*
X07395Y0881D02*
X07445Y0886D01*
X07395Y0876D02*
Y0881D01*
X07225Y0859D02*
X07395Y0876D01*
X071Y0859D02*
X07225D01*
X07305Y0881D02*
Y0906D01*
X07405Y0916*
X0755*
X07185Y0869D02*
X07305Y0881D01*
X071Y0869D02*
X07185D01*
X05855Y09725D02*
X07495Y0972D01*
X0582Y0976D02*
X05855Y09725D01*
X075Y07965D02*
X07515Y0798D01*
X04825Y07965D02*
X075D01*
X04825Y07765D02*
X0493Y0766D01*
X07505*
X07795Y09905D02*
X078Y0991D01*
X07795Y09745D02*
Y09905D01*
X07495Y0972D02*
X0752Y09745D01*
X07795*
X04825Y0976D02*
X0582D01*
X07642Y10395D02*
X0775D01*
X07477Y1056D02*
X07642Y10395D01*
X07475Y1056D02*
X07477D01*
X0775Y10485D02*
X07755Y1049D01*
Y1072*
X07695Y1066D02*
X07755Y1072D01*
X07475Y1066D02*
X07695D01*
X07405D02*
X07475D01*
X07355Y1061D02*
X07405Y1066D01*
X07355Y1037D02*
Y1061D01*
X07205Y1022D02*
X07355Y1037D01*
X07035Y1022D02*
X07205D01*
X0724Y10725D02*
X07345Y1083D01*
X0724Y1038D02*
Y10725D01*
X0718Y1032D02*
X0724Y1038D01*
X07035Y1032D02*
X0718D01*
X07515Y0876D02*
X07825D01*
X07795Y0798D02*
X0782Y08005D01*
X07515Y0798D02*
X07795D01*
X07515Y07795D02*
Y0798D01*
G54D14*
X0428Y0921D02*
Y0952D01*
Y08845D02*
Y0921D01*
X0773Y0956D02*
X0778Y0961D01*
X04825Y0956D02*
X0773D01*
X04675Y07865D02*
X04825D01*
X0451D02*
X04675D01*
Y09615*
X0472Y0966*
X04825*
X0494Y1042D02*
X07035D01*
X0428Y0952D02*
Y0976D01*
Y0952D02*
X04365D01*
X0451Y09375*
Y0921D02*
Y09375D01*
X0428Y08095D02*
X0451Y07865D01*
X0428Y08095D02*
Y0837D01*
X04335Y08315*
X0428Y0837D02*
Y08725D01*
X04335Y08315D02*
X04495D01*
X0428Y0976D02*
X0494Y1042D01*
X0423Y08675D02*
X0428Y08725D01*
X03995Y08675D02*
X0423D01*
X0425Y08875D02*
X0428Y08845D01*
X03995Y08875D02*
X0425D01*
X0451Y08445D02*
Y09045D01*
X0453Y05995D02*
Y06675D01*
X02305Y0922D02*
X0334D01*
X0421Y06145D02*
X0427Y06205D01*
X03985Y06145D02*
X0421D01*
X0425Y06345D02*
X0427Y06325D01*
X03985Y06345D02*
X0425D01*
X03985D02*
Y06917D01*
X03907Y06995D02*
X03985Y06917D01*
X03907Y06067D02*
X03985Y06145D01*
X03907Y05525D02*
Y06067D01*
X03679Y05651D02*
Y0624D01*
X03552Y05525D02*
X03679Y05651D01*
Y06417D02*
Y06868D01*
X03552Y06995D02*
X03679Y06868D01*
X03495Y06232D02*
X03502Y0624D01*
X03495Y06055D02*
Y06232D01*
X03235Y05795D02*
X03495Y06055D01*
X0279Y05795D02*
X03235D01*
X02155Y07005D02*
X03105D01*
X03502Y06607*
Y06417D02*
Y06607D01*
X03537Y08085D02*
X03679Y08226D01*
X03892Y0946D02*
X03995Y09357D01*
X03892Y08085D02*
X03995Y08187D01*
X03537Y0946D02*
X03679Y09318D01*
X0279Y06095D02*
Y0637D01*
X02335Y06825D02*
X0279Y0637D01*
X02335Y0625D02*
X0279Y05795D01*
X02335Y0625D02*
Y06525D01*
X02075Y06785D02*
X02335Y06525D01*
X01836Y06785D02*
X02075D01*
X02155Y07005D02*
X02335Y06825D01*
X0136Y07005D02*
X02155D01*
X01246Y06891D02*
X0136Y07005D01*
X01246Y06785D02*
Y06891D01*
X03995Y08875D02*
Y09357D01*
Y08187D02*
Y08675D01*
X03679Y08226D02*
Y08685D01*
Y08862D02*
Y09318D01*
X03502Y08685D02*
X0351Y08677D01*
Y085D02*
Y08677D01*
X0303Y0802D02*
X0351Y085D01*
X0279Y0802D02*
X0303D01*
X03502Y08862D02*
Y09057D01*
X0334Y0922D02*
X03502Y09057D01*
X0279Y0832D02*
Y08735D01*
X02335Y0919D02*
X0279Y08735D01*
X02305Y0922D02*
X02335Y0919D01*
X01401Y0922D02*
X02305D01*
X01246Y09065D02*
X01401Y0922D01*
X02335Y08475D02*
X0279Y0802D01*
X02335Y08475D02*
Y0889D01*
X02011D02*
X02335D01*
X01836Y09065D02*
X02011Y0889D01*
X01797Y08097D02*
Y08585D01*
X0176Y0806D02*
X01797Y08097D01*
X01206Y08213D02*
Y08585D01*
Y08213D02*
X0136Y0806D01*
X0164Y08742D02*
X01797Y08585D01*
X0164Y08742D02*
Y09065D01*
X01443Y08821D02*
Y09065D01*
X01206Y08585D02*
X01443Y08821D01*
X01797Y05762D02*
Y0633D01*
X0176Y05725D02*
X01797Y05762D01*
X0164Y06487D02*
X01797Y0633D01*
X0164Y06487D02*
Y06785D01*
X01443Y06566D02*
Y06785D01*
X01206Y0633D02*
X01443Y06566D01*
X01206Y05878D02*
Y0633D01*
Y05878D02*
X0136Y05725D01*
G54D15*
X0136Y05725D03*
X0156D03*
X0176D03*
X0136Y0806D03*
X0156D03*
X0176D03*
X10275Y0982D03*
X10075D03*
X09875D03*
X01206Y08585D03*
X01797D03*
X10275Y10865D03*
X10075D03*
X09875D03*
X10275Y10342D03*
X10075D03*
X09875D03*
X01206Y0633D03*
X01797D03*
G54D16*
X071Y0859D03*
X07035Y1022D03*
X04825Y0976D03*
Y07965D03*
X071Y0695D03*
X11195Y069D03*
X10385D03*
X09575D03*
X11195Y04905D03*
X10365D03*
X09535D03*
X04825Y0575D03*
G54D17*
X071Y0869D03*
Y0879D03*
X07035Y1032D03*
Y1042D03*
X04825Y0966D03*
Y0956D03*
Y07865D03*
Y07765D03*
X071Y0705D03*
Y0715D03*
X11195Y068D03*
Y067D03*
X10385Y068D03*
Y067D03*
X09575Y068D03*
Y067D03*
X11195Y04805D03*
Y04705D03*
X10365Y04805D03*
Y04705D03*
X09535Y04805D03*
Y04705D03*
X04825Y0565D03*
Y0555D03*
G54D18*
X09907Y07864D03*
X10063D03*
X10375D03*
X10219D03*
X09907Y09175D03*
X10063D03*
X10375D03*
X10219D03*
X09907Y0831D03*
X10063D03*
X10375D03*
X10219D03*
X09907Y0877D03*
X10063D03*
X10375D03*
X10219D03*
X10343Y06235D03*
X10499D03*
X1081D03*
X10655D03*
X09469D03*
X09625D03*
X09936D03*
X0978D03*
X11188Y05817D03*
X11344D03*
X11655D03*
X115D03*
X11188Y054D03*
X11344D03*
X11655D03*
X115D03*
X09469Y05817D03*
X09625D03*
X09936D03*
X0978D03*
X10343D03*
X10499D03*
X1081D03*
X10655D03*
X11188Y06235D03*
X11344D03*
X11655D03*
X115D03*
X09468Y054D03*
X09624D03*
X09935D03*
X0978D03*
X10343D03*
X10499D03*
X1081D03*
X10655D03*
G54D19*
X10835Y07845D03*
Y0824D03*
Y08635D03*
Y0903D03*
G54D20*
X10735Y07845D03*
Y0824D03*
Y08635D03*
Y0903D03*
G54D21*
X10635Y10476D03*
X10735D03*
X07475Y1056D03*
Y1066D03*
Y1046D03*
X07515Y0876D03*
Y0886D03*
Y0866D03*
X10635Y1094D03*
X10735D03*
X07495Y0982D03*
Y0992D03*
Y0972D03*
X07515Y0808D03*
Y0818D03*
Y0798D03*
X10635Y10013D03*
X10735D03*
X10635Y0955D03*
X10735D03*
X07365Y0632D03*
Y0642D03*
Y0622D03*
X0738Y0558D03*
Y0568D03*
Y0548D03*
G54D22*
X10835Y10476D03*
Y1094D03*
Y10013D03*
Y0955D03*
G54D23*
X0934Y09095D03*
Y08975D03*
X08205Y09125D03*
Y08925D03*
X0934Y1092D03*
Y108D03*
X08205D03*
Y106D03*
X0428Y08845D03*
Y08725D03*
X0934Y08015D03*
Y07895D03*
Y10025D03*
Y09905D03*
X08205Y0985D03*
Y0965D03*
Y0816D03*
Y0796D03*
X0427Y06325D03*
Y06205D03*
X089Y0648D03*
Y0636D03*
X08045Y06675D03*
Y06475D03*
X08935Y0555D03*
Y0543D03*
X08055Y056D03*
Y054D03*
X0428Y0921D03*
X0574Y0882D03*
G54D24*
X09595Y09145D03*
X08535Y0907D03*
X09595Y10955D03*
X08535Y10795D03*
X03995Y08875D03*
X09625Y08055D03*
X09595Y10045D03*
X08535Y0981D03*
Y08145D03*
X03985Y06345D03*
X09125Y0664D03*
X08375D03*
X0916Y0532D03*
X08385Y0559D03*
G54D25*
X09595Y08945D03*
X08535Y0887D03*
X09595Y10755D03*
X08535Y10595D03*
X03995Y08675D03*
X09625Y07855D03*
X09595Y09845D03*
X08535Y0961D03*
Y07945D03*
X03985Y06145D03*
X09125Y0644D03*
X08375D03*
X0916Y0512D03*
X08385Y0539D03*
G54D26*
X07835Y0875D03*
Y0884D03*
X0775Y10395D03*
Y10485D03*
X078Y0991D03*
Y1D03*
X0782Y08005D03*
Y08095D03*
X11455Y06655D03*
Y06565D03*
X1089Y06805D03*
Y06895D03*
X10122Y06805D03*
Y06895D03*
X09355Y06805D03*
Y06895D03*
X07695Y06315D03*
Y06405D03*
Y0547D03*
Y0556D03*
X11475Y048D03*
Y0471D03*
X1092Y04845D03*
Y04935D03*
X10117Y04845D03*
Y04935D03*
X09315Y04845D03*
Y04935D03*
G54D27*
X01246Y09065D03*
X01443D03*
X0164D03*
X01836D03*
X01246Y06785D03*
X01443D03*
X0164D03*
X01836D03*
G54D28*
X0279Y0832D03*
Y0802D03*
X02335Y0919D03*
Y0889D03*
X0279Y06095D03*
Y05795D03*
X02335Y06825D03*
Y06525D03*
G54D29*
X03679Y08685D03*
X03502D03*
X03325D03*
Y08862D03*
X03502D03*
X03679D03*
X03325Y06417D03*
X03502D03*
X03679D03*
Y0624D03*
X03502D03*
X03325D03*
M02*