M48
;Layer_Color=9474304
;FILE_FORMAT=4:2
METRIC,LZ
;TYPE=PLATED
T1F00S00C0.76
T2F00S00C0.89
T3F00S00C0.90
T4F00S00C1.10
%
T01
X012649Y005931
X00701Y006007
X012827Y012522
X006782Y012535
T02
X008865Y007633
Y007887
X009627
Y007633
X010465Y007722
Y007468
Y007214
X011227
Y007468
Y007722
Y007976
X010465
X009627Y008141
Y008395
Y008649
Y008903
Y009157
Y009411
Y009665
Y009919
X008865
Y009665
Y009411
Y009157
Y008903
Y008649
Y008395
Y008141
T03
X009843Y006668
X010096
X007493Y01002
Y010274
Y010528
Y010782
Y011036
Y01129
Y011544
Y011798
X008255
X008509
X008763
X009017
X009271
X009525
X009779
X010033
Y011036
X009779
X009525
X009271
X009017
X008763
X008509
X008255
X008242Y010617
X008496
X00875
X009004
X009258
X009512
X009766
X01002
X010274
X011341Y010732
Y010478
Y010224
Y009969
Y010986
Y011239
Y011493
Y011747
X011913
Y011493
Y011239
Y010986
Y010732
Y010478
Y010224
Y009969
X011963Y008865
Y008611
X011913Y012001
Y012256
X011341
Y012001
X007493Y012052
Y012306
T04
X010338Y009576
Y00983
X010846
Y009576
M30
