G04 Layer_Physical_Order=1*
G04 Layer_Color=255*
%FSLAX42Y42*%
%MOMM*%
G71*
G01*
G75*
%ADD10R,0.70X0.90*%
%ADD11R,1.40X3.30*%
%ADD12R,0.90X0.70*%
%ADD13C,1.02*%
%ADD14C,1.50*%
%ADD15R,1.50X1.50*%
%ADD16R,1.50X1.50*%
%ADD17C,1.52*%
%ADD18R,1.52X1.52*%
%ADD19C,1.78*%
%ADD20C,0.64*%
D10*
X11025Y9258D02*
D03*
X11175D02*
D03*
X8473Y9182D02*
D03*
X8623D02*
D03*
D11*
X9932Y8153D02*
D03*
X10312D02*
D03*
X6946Y8064D02*
D03*
X6566D02*
D03*
D12*
X9360Y9183D02*
D03*
Y9333D02*
D03*
X5931Y9056D02*
D03*
Y9206D02*
D03*
X9487Y4294D02*
D03*
Y4444D02*
D03*
D13*
X14834Y5613D02*
X14122D01*
X14846Y5601D02*
X14834Y5613D01*
Y5867D02*
X14122D01*
X14846Y5855D02*
X14834Y5867D01*
Y6121D02*
X14122D01*
X14846Y6109D02*
X14834Y6121D01*
Y6375D02*
X14122D01*
X14846Y6363D02*
X14834Y6375D01*
Y6629D02*
X14122D01*
X14846Y6617D02*
X14834Y6629D01*
Y6883D02*
X14122D01*
X14846Y6871D02*
X14834Y6883D01*
Y7137D02*
X14122D01*
X14846Y7125D02*
X14834Y7137D01*
Y7391D02*
X14122D01*
X14846Y7379D02*
X14834Y7391D01*
X12725Y8166D02*
Y8420D01*
Y8674D01*
Y8928D01*
Y9182D01*
Y9436D01*
Y9690D01*
Y9944D01*
Y10198D01*
Y10452D01*
X10046Y10465D02*
X9792D01*
X9538D01*
X9284D01*
X9030D01*
X8776D01*
X8522D01*
X8268D01*
X8014D01*
X7760D01*
X10858Y5296D02*
Y6172D01*
X11201Y4953D02*
X10858Y5296D01*
X12700Y4953D02*
X11201D01*
X13360Y5613D02*
X12700Y4953D01*
X11112Y5397D02*
Y6172D01*
X11316Y5194D02*
X11112Y5397D01*
X12510Y5194D02*
X11316D01*
X13183Y5867D02*
X12510Y5194D01*
X11367Y5575D02*
Y6172D01*
X11557Y5385D02*
X11367Y5575D01*
X12332Y5385D02*
X11557D01*
X13068Y6121D02*
X12332Y5385D01*
X11621Y5829D02*
Y6172D01*
X11849Y5601D02*
X11621Y5829D01*
X12243Y5601D02*
X11849D01*
X13018Y6375D02*
X12243Y5601D01*
X13068Y6629D02*
X12764Y6934D01*
Y7137D01*
X12510Y7391D01*
X11659D01*
X11367Y7099D01*
Y6934D02*
Y7099D01*
X13233Y6883D02*
X12573Y7544D01*
X11557D01*
X11112Y7099D01*
Y6934D02*
Y7099D01*
X10858Y6934D02*
Y7125D01*
X11455Y7722D02*
X10858Y7125D01*
X12649Y7722D02*
X11455D01*
X13233Y7137D02*
X12649Y7722D01*
X13246Y7391D02*
X12776Y7861D01*
X11227D01*
X10604Y7239D01*
Y6934D02*
Y7239D01*
X10312Y8153D02*
Y8940D01*
X10338Y8966D02*
X10312Y8940D01*
Y7810D02*
Y8153D01*
Y7810D02*
X10096Y7595D01*
Y6934D02*
Y7595D01*
X9932Y8153D02*
Y8459D01*
X10084Y8611D02*
X9932Y8459D01*
X10084Y8611D02*
Y8966D01*
X6617Y6921D02*
Y7480D01*
X6960Y7823D02*
X6617Y7480D01*
X6960Y7823D02*
Y8801D01*
X6706Y8496D02*
Y8801D01*
Y8496D02*
X6566Y8357D01*
Y8064D02*
Y8357D01*
X9867Y9183D02*
X9360D01*
X10084Y8966D02*
X9867Y9183D01*
X9943Y9333D02*
X9360D01*
X10338Y9728D02*
X9943Y9333D01*
X11025Y9258D02*
X10018D01*
X9943Y9333D01*
X11595Y9246D02*
X11188D01*
X11175Y9258D01*
X11595Y8992D02*
Y9246D01*
X10592Y9919D02*
X10046Y10465D01*
X10592Y9728D02*
Y9919D01*
X7760Y10465D02*
X7214Y9919D01*
Y9563D02*
Y9919D01*
X9359Y9182D02*
X8623D01*
X9360Y9183D02*
X9359Y9182D01*
X8473D02*
X7341D01*
X6960Y9563D01*
X6603Y9206D02*
X5931D01*
X6960Y9563D02*
X6603Y9206D01*
X6450Y9056D02*
X5931D01*
X6706Y8801D02*
X6450Y9056D01*
X5930Y9055D02*
X5271D01*
X5931Y9056D02*
X5930Y9055D01*
X5271Y8801D02*
Y9055D01*
X10084Y9728D02*
X9830D01*
X9271Y6553D02*
X8903Y6921D01*
X12382Y6934D02*
X12001Y6553D01*
X12129Y6934D02*
X11747Y6553D01*
X12001D02*
X11747D01*
X9271D01*
X8903Y6921D02*
X8649D01*
X13602Y8166D02*
X12725D01*
X14122Y7645D02*
X13602Y8166D01*
X6706Y9563D02*
X6452D01*
X5245D01*
X4978Y9296D01*
Y5969D02*
Y9296D01*
X5397Y5550D02*
X4978Y5969D01*
X6515Y5550D02*
X5397D01*
X7125Y6160D02*
X6515Y5550D01*
X13538Y5867D02*
X13183D01*
X13538Y6121D02*
X13068D01*
X13538Y6375D02*
X13018D01*
X13538Y6883D02*
X13233D01*
X13538Y7137D02*
X13233D01*
X13538Y7391D02*
X13246D01*
X14122Y5867D02*
X13538D01*
X14122Y6883D02*
X13538D01*
X14122Y7391D02*
X13538D01*
X14122Y6375D02*
X13538D01*
X14122Y5613D02*
X13538D01*
X13360D01*
X14122Y6629D02*
X13538D01*
X13068D01*
X14122Y7137D02*
X13538D01*
X14122Y6121D02*
X13538D01*
Y5359D02*
X12459Y4280D01*
X10719D01*
Y4737D01*
X10096Y4750D02*
Y6172D01*
Y4750D02*
X10084Y4737D01*
Y4280D02*
Y4737D01*
X9271Y6553D02*
X6414D01*
X5778Y7188D01*
Y8128D01*
X6452Y8801D02*
X5778Y8128D01*
X9487Y4293D02*
Y4294D01*
X9703Y4077D02*
X9487Y4293D01*
X10516Y4077D02*
X9703D01*
X10719Y4280D02*
X10516Y4077D01*
X9487Y4444D02*
Y6337D01*
X9271Y6553D01*
X9487Y4294D02*
X9130D01*
X8649Y4775D01*
Y6160D01*
D14*
X13538Y5613D02*
D03*
Y7391D02*
D03*
Y7137D02*
D03*
Y6883D02*
D03*
Y6629D02*
D03*
Y6375D02*
D03*
Y6121D02*
D03*
Y5867D02*
D03*
X15608Y7125D02*
D03*
Y6871D02*
D03*
Y6617D02*
D03*
Y6363D02*
D03*
Y6109D02*
D03*
Y5855D02*
D03*
Y5601D02*
D03*
X14846Y7379D02*
D03*
Y7125D02*
D03*
Y6871D02*
D03*
Y6617D02*
D03*
Y6363D02*
D03*
Y6109D02*
D03*
Y5855D02*
D03*
Y5601D02*
D03*
X13805Y4458D02*
D03*
X14313D02*
D03*
X14567D02*
D03*
X14821D02*
D03*
X15075D02*
D03*
X15329D02*
D03*
X15583D02*
D03*
X15837D02*
D03*
X14059D02*
D03*
X12725Y8420D02*
D03*
Y8928D02*
D03*
Y9182D02*
D03*
Y9436D02*
D03*
Y9690D02*
D03*
Y9944D02*
D03*
Y10198D02*
D03*
Y10452D02*
D03*
Y8674D02*
D03*
X9792Y10465D02*
D03*
X9284D02*
D03*
X9030D02*
D03*
X8776D02*
D03*
X8522D02*
D03*
X8268D02*
D03*
X8014D02*
D03*
X7760D02*
D03*
X9538D02*
D03*
X14122Y5867D02*
D03*
Y7645D02*
D03*
Y7391D02*
D03*
Y7137D02*
D03*
Y6883D02*
D03*
Y6629D02*
D03*
Y6375D02*
D03*
Y6121D02*
D03*
X11595Y9246D02*
D03*
X5271Y8801D02*
D03*
D15*
X13538Y5359D02*
D03*
X12725Y8166D02*
D03*
X14122Y5613D02*
D03*
X11595Y8992D02*
D03*
X5271Y9055D02*
D03*
D16*
X15608Y7379D02*
D03*
X13551Y4458D02*
D03*
X10046Y10465D02*
D03*
D17*
X12382Y6934D02*
D03*
X12129D02*
D03*
X11875D02*
D03*
X11621D02*
D03*
X11367D02*
D03*
X11112D02*
D03*
X10858D02*
D03*
X10604D02*
D03*
X10350D02*
D03*
X10096D02*
D03*
Y6172D02*
D03*
X10350D02*
D03*
X10604D02*
D03*
X10858D02*
D03*
X11112D02*
D03*
X11367D02*
D03*
X11621D02*
D03*
X11875D02*
D03*
X12129D02*
D03*
X8903Y6921D02*
D03*
X8649D02*
D03*
X8395D02*
D03*
X8141D02*
D03*
X7887D02*
D03*
X7633D02*
D03*
X7379D02*
D03*
X7125D02*
D03*
X6871D02*
D03*
X6617D02*
D03*
Y6160D02*
D03*
X6871D02*
D03*
X7125D02*
D03*
X7379D02*
D03*
X7633D02*
D03*
X7887D02*
D03*
X8141D02*
D03*
X8395D02*
D03*
X8649D02*
D03*
X6452Y8801D02*
D03*
X6706D02*
D03*
X6960D02*
D03*
X7214D02*
D03*
Y9563D02*
D03*
X6960D02*
D03*
X6706D02*
D03*
X9830Y8966D02*
D03*
X10084D02*
D03*
X10338D02*
D03*
X10592D02*
D03*
Y9728D02*
D03*
X10338D02*
D03*
X10084D02*
D03*
D18*
X12382Y6172D02*
D03*
X8903Y6160D02*
D03*
X6452Y9563D02*
D03*
X9830Y9728D02*
D03*
D19*
X10084Y4280D02*
D03*
Y4737D02*
D03*
X10719Y4280D02*
D03*
Y4737D02*
D03*
D20*
X16459Y11176D02*
D03*
X4089Y11278D02*
D03*
X4013Y3581D02*
D03*
X16561Y3619D02*
D03*
M02*
