M48
;Layer_Color=9474304
;FILE_FORMAT=4:2
METRIC,LZ
;TYPE=PLATED
T1F00S00C0.38
T2F00S00C0.89
T3F00S00C0.90
T4F00S00C1.02
%
T01
X004013Y003619
X016561Y003581
X004115Y011176
X016485Y011278
T02
X011925Y00616
X012179
X012433
X012687
X012941
X013195
X013449
X013703
X013957
Y006921
X013703
X013449
X013195
X012941
X012687
X012433
X012179
X011925
X011671
Y00616
X010478Y006172
X010224
X009969
X009715
X009461
X009207
X008954
X0087
X008446
X008192
Y006934
X008446
X0087
X008954
X009207
X009461
X009715
X009969
X010224
X010478
X01049Y008966
X010236
X009982
Y009728
X010236
X01049
X010744
Y008966
X01336Y008801
X013614
X013868
X014122
Y009563
X013868
X013614
X01336
T03
X004737Y004458
X004991
X005245
X005499
X005753
X006007
X006261
X006515
X006769
X007023
X007036Y005359
Y005613
Y005867
Y006121
Y006375
Y006629
Y006883
Y007137
Y007391
X006452
Y007137
Y006883
Y006629
Y006375
Y006121
Y005867
Y005613
X005728Y005601
Y005855
Y006109
Y006363
Y006617
Y006871
Y007125
Y007379
X004966
Y007125
Y006871
Y006617
Y006363
Y006109
Y005855
Y005601
X006452Y007645
X007849Y008166
Y00842
Y008674
Y008928
Y009182
Y009436
Y00969
Y009944
Y010198
Y010452
X008979Y009246
Y008992
X010528Y010465
X010782
X011036
X01129
X011544
X011798
X012052
X012306
X01256
X012814
X015304Y009055
Y008801
T04
X009855Y00428
Y004737
X01049
Y00428
M30
